<?xml version="1.0" encoding="UTF-8"?>
<svg version="1.1" xmlns="http://www.w3.org/2000/svg" width="1024" height="1024">
<path d="M0 0 C337.92 0 675.84 0 1024 0 C1024 337.92 1024 675.84 1024 1024 C686.08 1024 348.16 1024 0 1024 C0 686.08 0 348.16 0 0 Z " fill="#FEFEFE" transform="translate(0,0)"/>
<path d="M0 0 C1.10445075 -0.00173077 1.10445075 -0.00173077 2.23121363 -0.0034965 C4.69980747 -0.00614453 7.16833616 -0.00165594 9.63692665 0.00279331 C11.4240189 0.00235724 13.21111108 0.00148167 14.99820292 0.00020415 C19.91013487 -0.00203373 24.82204504 0.00197085 29.73397422 0.00698221 C35.03044176 0.01129663 40.32690805 0.00983958 45.62337685 0.00907993 C54.80026351 0.00855533 63.97714306 0.01169551 73.15402794 0.01731777 C86.42229918 0.02544135 99.69056698 0.02804887 112.95884044 0.02930576 C134.48521496 0.03149493 156.01158569 0.03815136 177.53795815 0.04760838 C198.45006733 0.05678598 219.36217548 0.06386511 240.27428627 0.06811619 C242.20749489 0.06851027 242.20749489 0.06851027 244.17975824 0.06891232 C250.6452532 0.07021735 257.11074818 0.07148106 263.57624316 0.07272422 C317.22250103 0.08309263 370.8687548 0.10070728 424.51500893 0.12304783 C424.51997415 1.48803284 424.51997415 1.48803284 424.52503967 2.8805933 C424.606291 25.03161828 424.69839054 47.18257505 424.80253601 69.33350468 C424.85263907 80.04556446 424.89908229 90.75761668 424.93688393 101.46972752 C424.96984449 110.80735108 425.00969823 120.14491555 425.05779898 129.48247385 C425.08302351 134.42575761 425.10481676 139.36900237 425.11835289 144.31233311 C425.13120993 148.96786789 425.1533036 153.62326865 425.18239212 158.27872944 C425.19143943 159.98466509 425.19715147 161.69062231 425.19922256 163.3965807 C425.20256529 165.73235242 425.21809642 168.06774877 425.23653603 170.40344334 C425.24206678 171.7087022 425.24759754 173.01396107 425.2532959 174.35877323 C426.23639163 188.4988499 432.98282113 201.1299943 443.14000893 210.87304783 C452.23649238 218.34837582 464.0060104 223.34902999 475.7726841 223.40152073 C476.4671212 223.4073064 477.1615583 223.41309208 477.87703896 223.41905308 C480.19252645 223.43597522 482.50781426 223.43891197 484.82335854 223.44189548 C486.51629586 223.45131243 488.20922856 223.46159246 489.90215588 223.47266293 C494.42461991 223.49986417 498.94705154 223.51529481 503.46957588 223.52824497 C507.71755183 223.54220455 511.96544016 223.56683589 516.21337318 223.59057713 C528.62636861 223.65376056 541.03944621 223.69986659 553.45250893 223.74804783 C595.06344643 223.93367283 595.06344643 223.93367283 637.51500893 224.12304783 C637.51500893 279.89304783 637.51500893 335.66304783 637.51500893 393.12304783 C632.0386097 392.51455903 627.2754946 391.93548756 622.01500893 390.74804783 C592.08523302 384.57819471 560.63129472 383.79315331 530.51500893 389.12304783 C529.58785072 389.28401951 528.66069252 389.44499119 527.70543861 389.6108408 C505.14688819 393.67231624 483.07963426 401.00737387 462.51500893 411.12304783 C461.76912514 411.48446873 461.02324135 411.84588963 460.25475502 412.21826267 C440.71978338 421.77006269 422.9801001 433.95757778 406.51500893 448.12304783 C405.63071205 448.87714939 404.74641518 449.63125095 403.83532143 450.40820408 C391.49203116 461.23387669 380.20732516 472.86993442 370.51500893 486.12304783 C370.02935463 486.78030857 369.54370033 487.43756931 369.04332924 488.11474705 C353.53637947 509.19404004 341.67097846 531.63411496 332.51500893 556.12304783 C332.23383217 556.87312107 331.95265541 557.62319431 331.66295815 558.39599705 C327.00814847 571.02164092 323.97107989 583.9054492 321.51500893 597.12304783 C321.26509193 598.42943211 321.26509193 598.42943211 321.01012611 599.76220798 C315.83703397 627.92503573 316.92783796 658.14556674 322.51500893 686.12304783 C322.69161049 687.06809177 322.86821205 688.01313572 323.05016518 688.98681736 C332.79503872 740.66171623 361.338786 785.71580332 398.49547768 822.04101658 C400.51500893 824.12304783 400.51500893 824.12304783 400.51500893 825.12304783 C348.37733982 825.21462692 296.23967885 825.28509854 244.10194512 825.32730915 C237.94495519 825.3323119 231.78796542 825.3374892 225.63097572 825.34277439 C224.40524309 825.34382363 223.17951045 825.34487287 221.9166344 825.34595391 C202.07638915 825.36335352 182.23619031 825.39488879 162.39597259 825.43165901 C142.03421926 825.46908075 121.67249023 825.4912863 101.31070393 825.49940181 C88.74897769 825.504887 76.18738265 825.52220427 63.6256968 825.5547137 C55.00869754 825.57587676 46.391766 825.58224379 37.77474264 825.57705334 C32.80506325 825.57449438 27.83561296 825.57838452 22.86597443 825.59986973 C18.31004848 825.61942189 13.75450439 825.6202619 9.19856038 825.60664341 C7.5563403 825.60496177 5.9140958 825.60996229 4.27192334 825.62258056 C-13.15867755 825.74865307 -27.45784525 821.46989868 -40.38733482 809.36132908 C-55.50444152 793.23078506 -55.22721663 773.51043688 -55.11492612 752.75418795 C-55.1003173 749.01730183 -55.1150064 745.28050446 -55.1258111 741.54362112 C-55.14073274 735.0068683 -55.13723624 728.47033098 -55.1213932 721.93358326 C-55.09789891 712.21305924 -55.1031964 702.49269645 -55.1141021 692.77215774 C-55.13266072 675.40836647 -55.12299969 658.04467801 -55.10162447 640.68089515 C-55.08305182 625.48599731 -55.07464704 610.29113398 -55.07619286 595.09622478 C-55.07628453 594.08746834 -55.07637621 593.0787119 -55.07647066 592.03938708 C-55.07686383 587.94430518 -55.07731346 583.84922329 -55.07784205 579.75414141 C-55.08271069 541.35714381 -55.06006718 502.96020739 -55.02388582 464.56322881 C-54.99189128 430.46393382 -54.97984291 396.36469107 -54.98596764 362.26538181 C-54.98635448 360.07566247 -54.98674094 357.88594313 -54.98712701 355.69622379 C-54.98731835 354.61365794 -54.9875097 353.53109209 -54.98770684 352.41572122 C-54.98866121 346.96600297 -54.98957558 341.51628472 -54.99044609 336.06656647 C-54.99061988 334.99137415 -54.99079368 333.91618183 -54.99097274 332.80840792 C-54.99532965 304.29817113 -54.98530995 275.78793996 -54.97060823 247.27770716 C-54.97008809 246.26328004 -54.96956795 245.24885293 -54.96903205 244.2036856 C-54.9685127 243.19112932 -54.96799336 242.17857305 -54.96745828 241.13533326 C-54.96694054 240.12465153 -54.9664228 239.1139698 -54.96588937 238.07266135 C-54.96484128 236.037283 -54.96378107 234.00190466 -54.96270865 231.96652632 C-54.95533323 217.78748458 -54.95323888 203.60845081 -54.95470265 189.42940739 C-54.95654972 171.15605309 -54.94845787 152.88274798 -54.92306119 134.60940974 C-54.90991485 124.9499152 -54.90487449 115.29049915 -54.91169973 105.6309976 C-54.91541939 99.17365708 -54.90817119 92.71638801 -54.89210735 86.25906657 C-54.88325873 82.58347753 -54.87899973 78.90804958 -54.88803452 75.23245727 C-54.9840213 32.39681807 -54.9840213 32.39681807 -40.32092857 16.80273533 C-28.4818565 5.97124386 -16.14708754 -0.00468032 0 0 Z " fill="#010101" transform="translate(165.4849910736084,78.87695217132568)"/>
<path d="M0 0 C1.04950333 -0.00160126 1.04950333 -0.00160126 2.12020874 -0.00323486 C24.39560511 0.04506106 46.38241923 3.93704094 67.375 11.4375 C68.0448291 11.67581543 68.7146582 11.91413086 69.40478516 12.15966797 C79.43352929 15.8026199 88.94960724 20.46915069 98.375 25.4375 C99.51453125 26.03046875 100.6540625 26.6234375 101.828125 27.234375 C118.20281914 36.14525507 132.50203605 47.8007332 145.74169922 60.84375 C147.10459338 62.17364134 148.50330017 63.46670447 149.91015625 64.75 C161.1843084 75.22616316 169.65920752 89.23162441 177.375 102.4375 C178.04015625 103.54222656 178.7053125 104.64695312 179.390625 105.78515625 C207.32087395 152.68827623 211.14363865 207.8686272 198.27539062 260.11865234 C196.07962362 268.21226857 192.92092602 275.85250593 189.375 283.4375 C188.87564941 284.51112793 188.87564941 284.51112793 188.36621094 285.60644531 C186.16124854 290.28579366 183.81023842 294.87445385 181.375 299.4375 C180.76140625 300.60539062 180.1478125 301.77328125 179.515625 302.9765625 C172.29215365 316.19969393 163.1548499 327.90045532 152.828125 338.83203125 C150.74472845 341.04481071 148.76752399 343.29998316 146.8125 345.625 C129.15153993 365.81487689 102.65145486 382.52621617 77.48217773 391.61328125 C70.25844382 394.24443653 65.42588823 397.47802949 59.9765625 402.87109375 C57.43259385 405.38068445 54.79711523 407.5917356 52 409.8125 C47.2043951 413.67904184 42.70621333 417.78601983 38.21362305 421.9934082 C34.00435005 425.913204 29.61765137 429.55008979 25.1328125 433.15234375 C20.99501026 436.58097592 17.07828893 440.23642913 13.13671875 443.88671875 C8.57538758 448.0996597 3.88477708 452.15182894 -0.83984375 456.1796875 C-2.0391759 457.20299211 -3.23839146 458.22643338 -4.4375 459.25 C-5.0363501 459.76071045 -5.6352002 460.2714209 -6.25219727 460.79760742 C-11.14022238 464.98291712 -15.89779579 469.29370164 -20.61328125 473.671875 C-22.625 475.4375 -22.625 475.4375 -23.625 475.4375 C-23.625 451.3475 -23.625 427.2575 -23.625 402.4375 C-33.03 400.9525 -33.03 400.9525 -42.625 399.4375 C-74.73098685 392.97519966 -104.68088028 378.6516579 -129.625 357.4375 C-130.79804258 356.45166285 -131.97122656 355.46599394 -133.14453125 354.48046875 C-143.77557731 345.51083399 -152.85126499 336.24721089 -161.28759766 325.18505859 C-162.5168264 323.57884841 -163.76346615 321.98600224 -165.01171875 320.39453125 C-178.29890033 303.21163151 -187.85706122 284.0349322 -194.89501953 263.55029297 C-195.51122973 261.76678693 -196.15666126 259.99341678 -196.80859375 258.22265625 C-200.66588728 247.0410077 -201.96905223 235.10651512 -203.625 223.4375 C-203.73175049 222.69773926 -203.83850098 221.95797852 -203.94848633 221.19580078 C-205.8591788 207.13572772 -204.58672775 193.13424243 -202.875 179.125 C-202.79649811 178.45839355 -202.71799622 177.79178711 -202.63711548 177.10498047 C-201.45529702 167.23122979 -199.38869968 157.9634587 -196.625 148.4375 C-196.40682617 147.64996338 -196.18865234 146.86242676 -195.96386719 146.05102539 C-186.96210492 113.73794275 -168.26928776 85.79850272 -145.625 61.4375 C-145.01398437 60.77234375 -144.40296875 60.1071875 -143.7734375 59.421875 C-137.66576143 53.02830771 -130.67344998 47.73967879 -123.625 42.4375 C-123.03879883 41.99583496 -122.45259766 41.55416992 -121.84863281 41.09912109 C-113.47520968 34.83894589 -104.84669533 29.3693403 -95.625 24.4375 C-95.02526367 24.11040039 -94.42552734 23.78330078 -93.80761719 23.44628906 C-78.12925614 14.94797067 -61.59872241 9.11669714 -44.25 5.0625 C-43.22986816 4.8238623 -42.20973633 4.58522461 -41.15869141 4.33935547 C-27.52871466 1.32861312 -13.95185143 -0.00461627 0 0 Z " fill="#49A166" transform="translate(739.625,515.5625)"/>
<path d="M0 0 C57.09780825 -0.0677817 114.19560689 -0.12151467 171.29344738 -0.15319599 C178.03026708 -0.15693805 184.76708668 -0.1608277 191.50390625 -0.16479492 C192.50950597 -0.16538334 192.50950597 -0.16538334 193.53542084 -0.16598364 C215.27080711 -0.17877106 237.00617001 -0.20130751 258.74154211 -0.22889166 C281.7075823 -0.25798475 304.67361287 -0.27598608 327.63967216 -0.28226548 C341.4005954 -0.28638733 355.16145155 -0.29941837 368.92235415 -0.3237494 C378.3513196 -0.33957448 387.78025022 -0.34440769 397.20922799 -0.34050413 C402.65393379 -0.33857756 408.09852212 -0.34158639 413.54320717 -0.35761642 C418.52492224 -0.3721767 423.50644043 -0.37297757 428.48816441 -0.36269668 C430.29310839 -0.36142536 432.09806449 -0.36526363 433.90298451 -0.37464955 C436.35206986 -0.38664765 438.80043978 -0.38022521 441.24951363 -0.36914349 C442.30639716 -0.38096505 442.30639716 -0.38096505 443.38463187 -0.39302543 C447.97907392 -0.34588536 451.09185184 0.60060086 455 3 C461.06699482 9.55891332 460.28327553 16.44382386 460.35009766 24.88598633 C460.36660405 26.41153272 460.39382406 27.93700346 460.43212891 29.4621582 C460.81118088 44.65555021 460.81118088 44.65555021 456.66650391 50.5480957 C451.98388685 54.6277212 447.26228374 55.43639813 441.24951363 55.36914349 C440.48451078 55.37260502 439.71950793 55.37606655 438.93132317 55.37963298 C436.36491689 55.38758108 433.79907393 55.37410919 431.23269653 55.36076355 C429.37548149 55.3620717 427.51826699 55.36469828 425.66105545 55.36853105 C420.55523411 55.37524617 415.4496012 55.36322916 410.34380388 55.34819686 C404.83874546 55.33525561 399.33369789 55.33962461 393.82862854 55.34190369 C384.28994347 55.34347763 374.7513199 55.33405576 365.2126503 55.31719017 C351.42130141 55.29282116 337.6299823 55.28499704 323.83861421 55.2812262 C301.46368215 55.27465842 279.08878006 55.25471415 256.71386719 55.22631836 C234.97721527 55.19876442 213.24057213 55.1775139 191.50390625 55.16479492 C190.8338643 55.16440034 190.16382236 55.16400576 189.47347611 55.16359923 C182.74462732 55.15964366 176.01577847 55.15581622 169.28692957 55.15208265 C112.85792875 55.12076044 56.42896886 55.06698771 0 55 C0 36.85 0 18.7 0 0 Z " fill="#FEFEFE" transform="translate(227,369)"/>
<path d="M0 0 C33.73377914 -0.33078652 67.46598258 -0.60770211 101.20089593 -0.76597994 C105.18495887 -0.78474018 109.16901837 -0.80415505 113.15307617 -0.82397461 C113.94621891 -0.82790927 114.73936164 -0.83184392 115.55653901 -0.83589781 C128.39351634 -0.90114065 141.22948445 -1.01939133 154.06586336 -1.15729194 C167.2406584 -1.29764597 180.41492552 -1.3808977 193.59043747 -1.41132742 C201.7189149 -1.43189515 209.84454003 -1.49680039 217.97213907 -1.618747 C224.20838191 -1.70753999 230.44245832 -1.71681013 236.6792469 -1.69661522 C239.23477353 -1.7007409 241.79040839 -1.73057092 244.34529114 -1.78808212 C263.12309906 -2.19003023 263.12309906 -2.19003023 267.95654798 1.48941493 C271.56372595 5.49963553 273.60043495 9.82431846 275 15 C274.63153597 19.06268704 272.31157485 21.46956129 269.8125 24.625 C268.91012652 25.77341414 268.00778466 26.92185313 267.10546875 28.0703125 C266.36562744 29.00472168 266.36562744 29.00472168 265.61083984 29.95800781 C263.21819723 32.99105764 260.85443375 36.04633405 258.48706055 39.09912109 C256.69378568 41.41131003 254.89877161 43.72211786 253.1015625 46.03125 C252.34866943 46.99901367 252.34866943 46.99901367 251.58056641 47.98632812 C251.05897949 48.65083984 250.53739258 49.31535156 250 50 C249.26491148 51.2811961 249.26491148 51.2811961 248.51497269 52.58827496 C244.71492935 56.23231441 241.26406647 55.67958624 236.17987061 55.60127258 C234.66791324 55.60768077 234.66791324 55.60768077 233.12541127 55.61421841 C229.73778211 55.62247382 226.35138285 55.59492 222.96386719 55.56762695 C220.53966298 55.56621704 218.11545663 55.56700734 215.69125366 55.56983948 C210.4670084 55.57097915 205.24304279 55.55677079 200.01888275 55.52865028 C192.46565279 55.48801936 184.91257381 55.47499354 177.3592464 55.46871033 C165.1046464 55.45776646 152.85021278 55.42448987 140.59570312 55.37719727 C128.69141472 55.33130399 116.7871715 55.29591099 104.8828125 55.2746582 C104.14906248 55.27334459 103.41531246 55.27203097 102.6593276 55.27067754 C98.97832889 55.26415237 95.29732986 55.25783383 91.61633062 55.25161803 C61.07740829 55.19978211 30.53879133 55.10760557 0 55 C0 36.85 0 18.7 0 0 Z " fill="#FEFEFE" transform="translate(227,520)"/>
<path d="M0 0 C3.43098392 -0.45114347 4.6906006 -0.23294259 7.50100517 1.88297272 C8.82995906 3.21689182 8.82995906 3.21689182 10.1857605 4.57775879 C10.68328705 5.07030765 11.1808136 5.56285651 11.69341671 6.0703311 C13.35964489 7.72597165 15.00736927 9.39888053 16.65576172 11.07226562 C17.84603067 12.26230789 19.0373934 13.45125703 20.22976685 14.63919067 C23.46850353 17.87221126 26.69148684 21.12053629 29.911798 24.37189674 C33.28712421 27.7747619 36.67621945 31.16385861 40.06375122 34.55456543 C45.75634379 40.25636942 51.4396851 45.96725716 57.11669922 51.68457031 C65.10517307 59.72970184 73.11069621 67.75769908 81.11946464 75.78262043 C86.67925049 81.35489733 92.23494593 86.93125198 97.78985453 92.50839043 C99.13297985 93.85686644 100.476212 95.20523606 101.81955099 96.55349922 C105.65568194 100.40401215 109.48920628 104.25708476 113.31873703 108.11416245 C114.47601962 109.2791114 115.63409574 110.4432727 116.79305267 111.60655594 C122.20143556 117.03636741 127.57492218 122.45001508 132.49699593 128.33385468 C134.20612017 130.22849317 136.05345427 131.85253844 138 133.5 C141.49070156 136.45730616 144.44749803 139.64839995 147.38671875 143.1484375 C148.84261116 144.81936487 150.35399854 146.27177279 152 147.75 C154 150 154 150 153.875 152.25 C153 154 153 154 152 155 C150.27653807 155.10716741 148.54867748 155.14409801 146.82191467 155.15390015 C145.69908081 155.16250061 144.57624695 155.17110107 143.41938782 155.17996216 C142.17634384 155.18422211 140.93329987 155.18848206 139.65258789 155.19287109 C138.35177277 155.20104858 137.05095764 155.20922607 135.71072388 155.21765137 C131.38138921 155.24392227 127.05204468 155.2591934 122.72265625 155.2734375 C121.23174979 155.27879688 119.74084339 155.28417439 118.24993706 155.28956985 C112.04348241 155.31121439 105.8370304 155.32994685 99.63054752 155.34119225 C90.74403997 155.35739917 81.857972 155.39047884 72.97163016 155.44759309 C66.72097468 155.48639034 60.47043623 155.505837 54.21966356 155.51111281 C50.48897097 155.51475567 46.75874666 155.52666019 43.02818489 155.55921555 C38.85584913 155.59509962 34.68444659 155.59090062 30.51196289 155.58349609 C29.28713699 155.59990143 28.0623111 155.61630676 26.80036926 155.63320923 C19.20964373 155.57821651 13.2818159 154.45772988 7 150 C1.46184669 144.23397417 -1.25173439 138.29347046 -1.24723816 130.20477295 C-1.25143265 129.07191864 -1.25562714 127.93906433 -1.25994873 126.7718811 C-1.25432922 125.54359589 -1.24870972 124.31531067 -1.24291992 123.04980469 C-1.24481827 121.74516266 -1.24671661 120.44052063 -1.24867249 119.09634399 C-1.25350449 115.53051601 -1.24588712 111.96481389 -1.23571944 108.39900112 C-1.22691773 104.66568082 -1.22869676 100.93236421 -1.2290802 97.19903564 C-1.22814489 90.9347524 -1.21947657 84.67051773 -1.20581055 78.40625 C-1.19005902 71.1591332 -1.18481346 63.91206946 -1.1855461 56.66493678 C-1.18615578 49.69278778 -1.18105756 42.72065608 -1.17275429 35.74851227 C-1.16921986 32.78044754 -1.16739082 29.81238893 -1.16686058 26.8443222 C-1.16567231 22.70706156 -1.15597195 18.56986413 -1.14526367 14.43261719 C-1.14571686 13.19623505 -1.14617004 11.95985291 -1.14663696 10.68600464 C-1.14237198 9.56442963 -1.13810699 8.44285461 -1.13371277 7.28729248 C-1.13203692 6.3087669 -1.13036108 5.33024132 -1.12863445 4.32206345 C-1 2 -1 2 0 0 Z " fill="#010101" transform="translate(643,95)"/>
<path d="M0 0 C64.68 0 129.36 0 196 0 C198.64 4.62 201.28 9.24 204 14 C206.14100923 17.41305947 208.32206925 20.79115561 210.53125 24.16015625 C212.12547476 27.24260678 212.32389421 28.60056391 212 32 C210.9777832 34.01708984 210.9777832 34.01708984 209.55078125 35.9609375 C209.03193359 36.68023438 208.51308594 37.39953125 207.97851562 38.140625 C207.42873047 38.87796875 206.87894531 39.6153125 206.3125 40.375 C205.78205078 41.10460937 205.25160156 41.83421875 204.70507812 42.5859375 C203.69847344 43.969247 202.68710704 45.34911493 201.66918945 46.72412109 C200.03640178 48.85678606 200.03640178 48.85678606 199.02464181 50.72390991 C197.81991743 52.71529454 196.65364505 54.35768709 195 56 C191.97702829 56.7112965 190.01237169 56.92443484 186.99577332 56.84178162 C186.19520848 56.84776259 185.39464365 56.85374356 184.56981927 56.85990578 C181.88942149 56.87142922 179.212097 56.83295761 176.53198242 56.79467773 C174.61008781 56.79270305 172.68818792 56.79381187 170.76629639 56.79777527 C165.54935454 56.79978509 160.33353752 56.75860884 155.11685729 56.70975757 C149.66498363 56.66602104 144.21308465 56.66188823 138.76106262 56.65357971 C128.43722574 56.63181621 118.11390728 56.57436369 107.79029876 56.50413328 C96.03715446 56.42591223 84.28398549 56.3874089 72.53064573 56.35226524 C48.35341012 56.27908181 24.17688526 56.15070187 0 56 C0 37.52 0 19.04 0 0 Z " fill="#FBFBFB" transform="translate(227,670)"/>
<path d="M0 0 C6.43196111 3.30250918 9.48498755 8.14143304 11.7421875 14.89453125 C12.66335734 21.07272205 12.6282974 27.30467989 9.3671875 32.78515625 C-7.56110574 54.75938305 -34.70672785 69.75767799 -60.8828125 77.70703125 C-61.51437256 77.90200195 -62.14593262 78.09697266 -62.79663086 78.29785156 C-96.21221068 87.84636297 -134.33975931 82.20555139 -164.67578125 65.9296875 C-173.85275281 60.80737147 -182.25073921 54.68313687 -190.2578125 47.89453125 C-191.21171875 47.08757813 -192.165625 46.280625 -193.1484375 45.44921875 C-200.30416218 39.19274289 -206.33494786 33.40928615 -207.53125 23.66796875 C-207.82446198 16.74365515 -206.31906344 11.55301278 -202.2578125 5.89453125 C-197.16780895 0.92547828 -192.65688022 -1.20114945 -185.5703125 -1.41796875 C-175.30470179 -1.1785376 -170.23341692 3.68004728 -163.47509766 10.75488281 C-148.8154119 25.82353881 -127.68123322 35.55137195 -106.6328125 36.09765625 C-79.27660453 36.43615424 -55.09980767 30.62635557 -34.2578125 11.89453125 C-31.43974181 9.09331742 -28.70117359 6.22282111 -25.99609375 3.3125 C-18.45124961 -3.34978035 -9.00351465 -3.95937692 0 0 Z " fill="#FCFEFD" transform="translate(838.2578125,740.10546875)"/>
<path d="M0 0 C7.92652158 3.638994 12.6688012 9.16600488 16.078125 17.12109375 C17.34204884 26.0106914 16.43489277 33.79433078 11.078125 41.12109375 C6.30613046 46.45983349 0.97864746 49.69763534 -6.16015625 50.47265625 C-15.12897133 50.83873033 -21.02326566 49.56652777 -27.6953125 43.51171875 C-33.84497377 36.97207896 -35.58966891 30.02404053 -35.33203125 21.15234375 C-34.32157699 13.68460563 -30.65930299 8.05371634 -24.86328125 3.375 C-17.04983311 -1.67151278 -9.00444307 -2.70855574 0 0 Z " fill="#FDFEFD" transform="translate(691.921875,668.87890625)"/>
<path d="M0 0 C1.9978263 1.20479601 3.64793412 2.46607846 5.359375 4.046875 C6.720625 5.2225 6.720625 5.2225 8.109375 6.421875 C13.40783589 12.6034127 15.78777442 18.59170589 15.6328125 26.8046875 C14.63721547 34.96858317 10.64650274 40.96336405 4.359375 46.046875 C-2.4446844 50.79389319 -9.54454852 50.7077792 -17.640625 50.046875 C-24.73058769 48.30092745 -29.57447631 42.86100025 -33.640625 37.046875 C-36.79812373 30.81635911 -37.78107583 24.35071921 -35.984375 17.5703125 C-33.7958279 11.32540655 -30.76282298 7.19079912 -25.640625 3.046875 C-24.67125 2.2425 -23.701875 1.438125 -22.703125 0.609375 C-16.5074214 -2.62928825 -6.45222133 -2.32890829 0 0 Z " fill="#FCFEFC" transform="translate(808.640625,668.953125)"/>
<path d="M0 0 C0.66 0 1.32 0 2 0 C1.57813087 5.16789683 0.52416232 9.84053853 -0.90625 14.828125 C-3.07147417 22.69254148 -4.30002478 30.58773059 -5.25 38.6875 C-5.33371857 39.38243561 -5.41743713 40.07737122 -5.50369263 40.79336548 C-7.46623183 57.25538447 -7.80615615 72.64235869 -4.98022461 89.02612305 C-4.19940892 93.65088488 -3.85819418 97.35716045 -5 102 C-5.33 102 -5.66 102 -6 102 C-9.16538401 88.93894949 -9.1048538 75.67504189 -9.1875 62.3125 C-9.20055176 61.08942139 -9.21360352 59.86634277 -9.22705078 58.60620117 C-9.23348927 51.79106211 -8.72381435 45.4101415 -7.4699707 38.71313477 C-6.8120197 34.91479216 -6.63322626 31.15860432 -6.5 27.3125 C-6.1023555 19.07008082 -5.53451311 12.09749878 -1 5 C-0.29329272 2.30745009 -0.29329272 2.30745009 0 0 Z " fill="#DAF5E3" transform="translate(543,656)"/>
<path d="M0 0 C6.75 -0.125 6.75 -0.125 9 1 C9 25.09 9 49.18 9 74 C8.34 73.67 7.68 73.34 7 73 C5.79783292 57.76920744 6.07650428 42.63761114 6.4375 27.375 C6.49086513 24.90365937 6.54360385 22.43230514 6.59570312 19.9609375 C6.72326008 13.97378251 6.85850058 7.98684087 7 2 C4.69 2 2.38 2 0 2 C0 1.34 0 0.68 0 0 Z " fill="#DAF5E4" transform="translate(707,917)"/>
<path d="M0 0 C0.33 0 0.66 0 1 0 C1.48404266 2.62418097 1.96229498 5.24921597 2.4375 7.875 C2.57220703 8.60203125 2.70691406 9.3290625 2.84570312 10.078125 C4.6370131 20.0395561 5.19327871 29.82114696 5.1875 39.9375 C5.1884668 41.69864136 5.1884668 41.69864136 5.18945312 43.49536133 C5.12987326 53.4309801 4.34208944 63.16200506 3 73 C2.67 73 2.34 73 2 73 C1.80569145 70.3753399 1.61926762 67.75053235 1.4375 65.125 C1.38142578 64.37863281 1.32535156 63.63226562 1.26757812 62.86328125 C0.88671875 57.2265625 0.88671875 57.2265625 2 55 C2.09709562 53.19347192 2.13076382 51.38335309 2.1328125 49.57421875 C2.13482666 48.47271484 2.13684082 47.37121094 2.13891602 46.23632812 C2.13432373 45.06521484 2.12973145 43.89410156 2.125 42.6875 C2.12101196 40.91729492 2.12101196 40.91729492 2.11694336 39.11132812 C2.76236338 26.23175389 2.76236338 26.23175389 0 14 C-0.07116382 11.62597499 -0.08409085 9.24999323 -0.0625 6.875 C-0.05347656 5.59367188 -0.04445313 4.31234375 -0.03515625 2.9921875 C-0.02355469 2.00476563 -0.01195312 1.01734375 0 0 Z " fill="#6CA480" transform="translate(940,678)"/>
<path d="M0 0 C0.66 0 1.32 0 2 0 C3.54999196 10.40821794 4.29802688 20.56418334 4.20581055 31.08642578 C4.18715467 33.2908041 4.18530457 35.49476843 4.18554688 37.69921875 C4.14646377 49.00068443 4.14646377 49.00068443 3 53 C2.62500417 55.04974463 2.26464424 57.10218881 1.9140625 59.15625 C1.70523438 60.34347656 1.49640625 61.53070312 1.28125 62.75390625 C0.8439806 65.24998573 0.4142812 67.74740325 -0.0078125 70.24609375 C-0.21921875 71.43332031 -0.430625 72.62054687 -0.6484375 73.84375 C-0.83583496 74.92849609 -1.02323242 76.01324219 -1.21630859 77.13085938 C-2.01794853 80.06571063 -3.01159785 81.73106785 -5 84 C-4.27765334 76.57337335 -2.97060573 69.38227771 -1.4609375 62.08007812 C0.74724014 50.98151365 1.17020981 39.98107238 1.125 28.6875 C1.12306641 27.5121167 1.12113281 26.3367334 1.11914062 25.12573242 C1.07736892 16.71395551 0.78569385 8.37605765 0 0 Z " fill="#E5FDEF" transform="translate(943,690)"/>
<path d="M0 0 C-9.92368205 6.32305405 -19.99646341 11.47525214 -30.82324219 16.07275391 C-33.17091561 17.07280591 -35.51359984 18.08290528 -37.8515625 19.10546875 C-38.9355835 19.57762817 -38.9355835 19.57762817 -40.04150391 20.05932617 C-42.24038599 21.05930781 -42.24038599 21.05930781 -45 23 C-45.66 22.34 -46.32 21.68 -47 21 C-43.375 18 -43.375 18 -40 18 C-39.67 17.01 -39.34 16.02 -39 15 C-36.55859375 13.97265625 -36.55859375 13.97265625 -33.4375 13.0625 C-28.92626318 11.66412374 -24.84476486 10.07992244 -20.67578125 7.87890625 C-17.24574075 6.07993396 -13.77381359 4.83862524 -10 4 C-10 3.34 -10 2.68 -10 2 C-3.375 -1.125 -3.375 -1.125 0 0 Z " fill="#5D9B71" transform="translate(849,891)"/>
<path d="M0 0 C0 0.33 0 0.66 0 1 C-7.59 1.33 -15.18 1.66 -23 2 C-23.33 2.66 -23.66 3.32 -24 4 C-28.95 3.67 -33.9 3.34 -39 3 C-39.33 3.66 -39.66 4.32 -40 5 C-40.93972656 4.98259766 -40.93972656 4.98259766 -41.8984375 4.96484375 C-43.12433594 4.95130859 -43.12433594 4.95130859 -44.375 4.9375 C-45.59316406 4.92009766 -45.59316406 4.92009766 -46.8359375 4.90234375 C-49.04937142 4.85533666 -49.04937142 4.85533666 -51 6 C-53.3400417 5.71758117 -55.67504723 5.38749213 -58 5 C-43.07531596 -4.20288828 -16.93037075 -0.29896064 0 0 Z " fill="#78B08B" transform="translate(757,516)"/>
<path d="M0 0 C-5.18717436 12.01240379 -21.73733039 22.94811013 -33 29 C-33.66 29 -34.32 29 -35 29 C-34.505 27.515 -34.505 27.515 -34 26 C-33.01 26 -32.02 26 -31 26 C-31 25.34 -31 24.68 -31 24 C-29.02 23.34 -27.04 22.68 -25 22 C-25 21.34 -25 20.68 -25 20 C-24.34 20 -23.68 20 -23 20 C-23 19.34 -23 18.68 -23 18 C-22.01 18 -21.02 18 -20 18 C-20 17.34 -20 16.68 -20 16 C-19.01 16 -18.02 16 -17 16 C-17 15.01 -17 14.02 -17 13 C-16.01 13 -15.02 13 -14 13 C-13.34 11.68 -12.68 10.36 -12 9 C-11.01 9 -10.02 9 -9 9 C-8.95875 8.443125 -8.9175 7.88625 -8.875 7.3125 C-7.51963902 3.73047455 -4.03008154 0 0 0 Z " fill="#E1F9E9" transform="translate(846,773)"/>
<path d="M0 0 C-0.93457031 0.42667969 -1.86914062 0.85335937 -2.83203125 1.29296875 C-13.67465649 6.40113696 -23.32949435 12.72502478 -33.05566406 19.70654297 C-34.97666895 20.98447917 -36.91596679 22.0149369 -39 23 C-39.33 22.34 -39.66 21.68 -40 21 C-39.34 20.34 -38.68 19.68 -38 19 C-37.01 19 -36.02 19 -35 19 C-34.67 18.01 -34.34 17.02 -34 16 C-32.68 16 -31.36 16 -30 16 C-30 15.34 -30 14.68 -30 14 C-29.01 14 -28.02 14 -27 14 C-27 13.34 -27 12.68 -27 12 C-24 10 -24 10 -21 10 C-21 9.34 -21 8.68 -21 8 C-18.4385343 5.70351351 -17.52032428 5 -14 5 C-14 4.34 -14 3.68 -14 3 C-12.42274653 2.29866401 -10.83788667 1.614417 -9.25 0.9375 C-7.92742188 0.36322266 -7.92742188 0.36322266 -6.578125 -0.22265625 C-3.84743691 -1.04600008 -2.63098653 -0.9773992 0 0 Z " fill="#E0F9E9" transform="translate(652,537)"/>
<path d="M0 0 C3.16164915 0.0108141 6.32274204 0.00000593 9.484375 -0.01269531 C11.50520958 -0.01137524 13.52604382 -0.008816 15.546875 -0.00488281 C16.48648071 -0.00893127 17.42608643 -0.01297974 18.39416504 -0.01715088 C22.90914763 0.01524538 26.54619147 0.1065653 30.640625 2.26074219 C30.640625 2.59074219 30.640625 2.92074219 30.640625 3.26074219 C29.8885376 3.19072998 29.1364502 3.12071777 28.36157227 3.04858398 C19.42893229 2.28188323 10.53757798 2.06393944 1.578125 2.07324219 C0.86149689 2.07251709 0.14486877 2.07179199 -0.59347534 2.07104492 C-12.27560472 2.07234639 -23.77689596 2.68451175 -35.359375 4.26074219 C-28.29754419 -2.80108862 -9.28012229 -0.03788995 0 0 Z " fill="#E7FDEF" transform="translate(739.359375,514.7392578125)"/>
<path d="M0 0 C1.65 0 3.3 0 5 0 C1.26797131 5.01893514 -3.1205967 8.64920444 -7.99609375 12.54296875 C-12.83908723 16.50427291 -17.41120014 20.74848137 -22 25 C-22.33 24.01 -22.66 23.02 -23 22 C-20.05711239 17.84533514 -17.47549327 15.47329891 -13 13 C-12.443125 12.443125 -11.88625 11.88625 -11.3125 11.3125 C-10.879375 10.879375 -10.44625 10.44625 -10 10 C-9.34 10 -8.68 10 -8 10 C-7.67 9.01 -7.34 8.02 -7 7 C-5 6.5 -5 6.5 -3 6 C-2.67 5.01 -2.34 4.02 -2 3 C-1.34 3 -0.68 3 0 3 C0 2.01 0 1.02 0 0 Z " fill="#609E73" transform="translate(789,922)"/>
<path d="M0 0 C0.99 0 1.98 0 3 0 C3 0.66 3 1.32 3 2 C4.2065625 2.433125 4.2065625 2.433125 5.4375 2.875 C8 4 8 4 9 6 C10.57877545 6.92667255 12.16305118 7.84488879 13.76953125 8.72265625 C17.37084368 10.78505409 20.79872458 13.11729443 24.25390625 15.4140625 C26.99103519 17.12864028 26.99103519 17.12864028 30.27734375 18.0234375 C31.17582031 18.34570312 32.07429687 18.66796875 33 19 C33.495 20.485 33.495 20.485 34 22 C21.04897207 18.59183475 9.1740323 10.67050934 0 1 C0 0.67 0 0.34 0 0 Z " fill="#609C74" transform="translate(674,750)"/>
<path d="M0 0 C5.01745254 3.12042188 9.21063126 6.76142952 13.5 10.8125 C14.13808594 11.40353516 14.77617188 11.99457031 15.43359375 12.60351562 C19.60172863 16.51167481 23.35149035 20.60264501 27 25 C26.01 25 25.02 25 24 25 C23.67 24.34 23.34 23.68 23 23 C20.97536745 22.34786708 20.97536745 22.34786708 19 22 C19 21.34 19 20.68 19 20 C18.34 20 17.68 20 17 20 C16.401875 19.0925 15.80375 18.185 15.1875 17.25 C13.05230482 14.07771001 10.98205348 12.31937493 8 10 C8 9.34 8 8.68 8 8 C7.01 8 6.02 8 5 8 C4.34 6.35 3.68 4.7 3 3 C2.01 3 1.02 3 0 3 C0 2.01 0 1.02 0 0 Z " fill="#5D9C72" transform="translate(866,560)"/>
<path d="M0 0 C14.82352941 1.41176471 14.82352941 1.41176471 20 4 C20 4.66 20 5.32 20 6 C21.299375 6.12375 22.59875 6.2475 23.9375 6.375 C28.71849952 6.89863328 33.33114101 7.86313835 38 9 C37.67 9.66 37.34 10.32 37 11 C24.4453973 9.51998586 11.62875611 5.96669666 0 1 C0 0.67 0 0.34 0 0 Z " fill="#58986D" transform="translate(663,904)"/>
<path d="M0 0 C0 0.66 0 1.32 0 2 C-1.7325 2.680625 -1.7325 2.680625 -3.5 3.375 C-4.1496875 3.63023437 -4.799375 3.88546875 -5.46875 4.1484375 C-13.06326353 6.70338187 -19.64285171 7.28496839 -27.625 7.1875 C-28.635625 7.18685547 -29.64625 7.18621094 -30.6875 7.18554688 C-35.56217265 7.15675944 -40.2105459 7.02164123 -45 6 C-45 5.67 -45 5.34 -45 5 C-43.98184204 4.97812622 -43.98184204 4.97812622 -42.94311523 4.95581055 C-28.67025434 4.61393838 -13.73799458 0 0 0 Z " fill="#DBF4E3" transform="translate(771,772)"/>
<path d="M0 0 C0.33 0 0.66 0 1 0 C1.38530785 7.72114121 0.26535601 14.62462257 -1.5 22.125 C-1.73847656 23.176875 -1.97695313 24.22875 -2.22265625 25.3125 C-2.80557664 27.87734972 -3.3981416 30.43954068 -4 33 C-4.33 33 -4.66 33 -5 33 C-5.97155636 27.36497312 -5.84927758 24.43905171 -4 19 C-3.96745507 16.40861 -4.05977418 13.85578072 -4.22265625 11.26953125 C-3.94622581 8.45188061 -3.04141759 7.85053179 -1 6 C-0.83312552 3.41645782 -0.83312552 3.41645782 -1 1 C-0.67 0.67 -0.34 0.34 0 0 Z " fill="#5F9C75" transform="translate(941,746)"/>
<path d="M0 0 C0.86496094 0.02707031 1.72992187 0.05414062 2.62109375 0.08203125 C3.26175781 0.11683594 3.90242187 0.15164063 4.5625 0.1875 C1.74555699 1.74540302 -0.57583594 2.4408781 -3.75 2.875 C-8.5037868 3.84293032 -10.70892445 5.9688588 -13.87890625 9.51953125 C-15.80893757 11.58500336 -18.0196078 12.74983437 -20.4375 14.1875 C-21.0975 15.05375 -21.7575 15.92 -22.4375 16.8125 C-24.4375 19.1875 -24.4375 19.1875 -27.1875 20 C-27.93 20.061875 -28.6725 20.12375 -29.4375 20.1875 C-28.73367188 19.48882813 -28.02984375 18.79015625 -27.3046875 18.0703125 C-25.36445111 16.13280691 -23.45864726 14.16774475 -21.5703125 12.1796875 C-20.56780346 11.14053322 -19.56519832 10.10147164 -18.5625 9.0625 C-17.82580078 8.27552734 -17.82580078 8.27552734 -17.07421875 7.47265625 C-12.22929141 2.50188664 -7.12386985 -0.29276177 0 0 Z " fill="#DEF7E7" transform="translate(827.4375,737.8125)"/>
<path d="M0 0 C0.495 1.485 0.495 1.485 1 3 C-2.32689163 8.17634577 -6.84918479 11.75274693 -12 15 C-12.9075 15.9075 -13.815 16.815 -14.75 17.75 C-15.4925 18.4925 -16.235 19.235 -17 20 C-17.66 20 -18.32 20 -19 20 C-19.185625 20.556875 -19.37125 21.11375 -19.5625 21.6875 C-22.18210428 25.90164601 -26.19408206 28.50049078 -30.9375 29.8125 C-31.618125 29.874375 -32.29875 29.93625 -33 30 C-29.55307654 26.40734264 -26.0181594 23.40591525 -22 20.4375 C-17.04587911 16.70952582 -12.36746851 12.76891328 -7.8125 8.5625 C-7.26013672 8.05452881 -6.70777344 7.54655762 -6.13867188 7.02319336 C-3.74908855 4.78689415 -1.82441566 2.73662349 0 0 Z " fill="#E2F9EA" transform="translate(890,856)"/>
<path d="M0 0 C5.24090412 2.68139281 7.63581689 5.79778135 10.0859375 11.140625 C12.00502186 17.14391454 12.32961779 23.98193297 9.5 29.75 C9.005 30.4925 8.51 31.235 8 32 C7 29 7 29 7.4609375 27.28515625 C8.24046023 23.98065771 7.88354425 20.78887981 7.625 17.4375 C7.58117187 16.76525391 7.53734375 16.09300781 7.4921875 15.40039062 C7.27804679 12.40539487 6.95394503 9.86183508 6 7 C3.99983534 5.79117904 3.99983534 5.79117904 2 5 C2 4.34 2 3.68 2 3 C1.34 3 0.68 3 0 3 C0 2.01 0 1.02 0 0 Z " fill="#E2F9EA" transform="translate(839,741)"/>
<path d="M0 0 C0.66 0.33 1.32 0.66 2 1 C-1.12181909 5.2992794 -4.60350104 8.18105399 -8.8125 11.3125 C-13.64523369 14.98983724 -17.76214309 18.67102572 -21.609375 23.40234375 C-23.47322116 25.54367263 -25.39677821 26.88433352 -28 28 C-28.66 27.67 -29.32 27.34 -30 27 C-25.33076129 22.04391386 -20.30200241 17.75197485 -15 13.48828125 C-9.81975336 9.19164439 -4.91803855 4.5918859 0 0 Z " fill="#E0F9E9" transform="translate(771,942)"/>
<path d="M0 0 C0 0.33 0 0.66 0 1 C-0.72445312 1.09796875 -1.44890625 1.1959375 -2.1953125 1.296875 C-3.16210938 1.44640625 -4.12890625 1.5959375 -5.125 1.75 C-6.07632813 1.88921875 -7.02765625 2.0284375 -8.0078125 2.171875 C-14.49836215 3.96821511 -18.74705372 8.52077502 -23.25 13.25 C-25.12938739 15.22106483 -27.02561035 17.12019189 -29 19 C-29.66 19 -30.32 19 -31 19 C-30.52492969 14.72436721 -28.04697466 12.83439503 -25 10 C-24.278125 9.236875 -23.55625 8.47375 -22.8125 7.6875 C-21 6 -21 6 -19 6 C-19 5.34 -19 4.68 -19 4 C-6.51480638 -1.92482916 -6.51480638 -1.92482916 0 0 Z " fill="#59996E" transform="translate(830,737)"/>
<path d="M0 0 C-1.42088605 3.17568033 -3.16408623 5.49398464 -5.5 8.0625 C-10.04504013 13.07937692 -11.34244026 16.44727287 -11.625 23.1875 C-11.66367187 23.93708984 -11.70234375 24.68667969 -11.7421875 25.45898438 C-11.83628216 27.30559199 -11.91922319 29.1527619 -12 31 C-15.1509379 26.27359315 -14.64631906 21.52737444 -14 16 C-12.17325608 10.15278845 -7.21188824 0 0 0 Z " fill="#E1F9EA" transform="translate(671,671)"/>
<path d="M0 0 C7.79981998 0.1278659 13.52979067 1.81289275 19.33984375 7.1171875 C22.42499917 10.51161278 24.87108735 14.12567239 26.5 18.4375 C26.1875 20.8125 26.1875 20.8125 25.5 22.4375 C25.5 21.4475 25.5 20.4575 25.5 19.4375 C24.84 19.4375 24.18 19.4375 23.5 19.4375 C23.5 18.1175 23.5 16.7975 23.5 15.4375 C22.84 15.4375 22.18 15.4375 21.5 15.4375 C21.5 14.4475 21.5 13.4575 21.5 12.4375 C20.84 12.4375 20.18 12.4375 19.5 12.4375 C16.5 8.97596154 16.5 8.97596154 16.5 6.4375 C15.96375 6.334375 15.4275 6.23125 14.875 6.125 C12.5 5.4375 12.5 5.4375 9.84375 3.90625 C5.97739361 2.20794392 2.75524903 2.09391501 -1.375 2.25 C-2.40753906 2.27030273 -2.40753906 2.27030273 -3.4609375 2.29101562 C-5.14097001 2.3260163 -6.8205935 2.37981046 -8.5 2.4375 C-5.71292883 -0.34957117 -3.89543468 0.07198086 0 0 Z " fill="#D7F4DF" transform="translate(681.5,667.5625)"/>
<path d="M0 0 C1.52519276 0.08937803 3.04681929 0.24537146 4.5625 0.4375 C5.38878906 0.53933594 6.21507812 0.64117188 7.06640625 0.74609375 C7.70449219 0.82988281 8.34257813 0.91367187 9 1 C6.22737563 2.48917647 3.64391476 3.45327683 0.5859375 4.18359375 C-0.25356445 4.38766846 -1.09306641 4.59174316 -1.95800781 4.80200195 C-2.83811523 5.01171631 -3.71822266 5.22143066 -4.625 5.4375 C-11.48401266 7.10782631 -18.26692503 8.86785959 -25 11 C-25 10.34 -25 9.68 -25 9 C-20.04146163 6.26038753 -15.12660716 4.78820828 -9.6875 3.375 C-4.43254971 2.40871195 -4.43254971 2.40871195 0 0 Z " fill="#DCF8E6" transform="translate(694,518)"/>
<path d="M0 0 C1.17369141 0.11794922 1.17369141 0.11794922 2.37109375 0.23828125 C4.5625 0.6875 4.5625 0.6875 7.5625 2.6875 C9.21799531 3.07249891 10.8847433 3.41543135 12.5625 3.6875 C12.5625 4.6775 12.5625 5.6675 12.5625 6.6875 C11.7375 6.36394531 10.9125 6.04039062 10.0625 5.70703125 C6.16406581 4.57143826 2.58417263 4.35610116 -1.4375 4.375 C-2.12328125 4.35888672 -2.8090625 4.34277344 -3.515625 4.32617188 C-8.23355034 4.32167004 -11.39558441 5.29392811 -15.4375 7.6875 C-15.7675 6.6975 -16.0975 5.7075 -16.4375 4.6875 C-15.73882813 4.41035156 -15.04015625 4.13320313 -14.3203125 3.84765625 C-13.41023437 3.48542969 -12.50015625 3.12320313 -11.5625 2.75 C-10.65757812 2.39035156 -9.75265625 2.03070312 -8.8203125 1.66015625 C-3.74414741 -0.4119177 -3.74414741 -0.4119177 0 0 Z " fill="#61A075" transform="translate(799.4375,664.3125)"/>
<path d="M0 0 C0.33 0 0.66 0 1 0 C1.05783842 4.29161047 1.0935412 8.58312145 1.125 12.875 C1.14175781 14.09832031 1.15851562 15.32164062 1.17578125 16.58203125 C1.18222656 17.74863281 1.18867187 18.91523437 1.1953125 20.1171875 C1.20578613 21.19597168 1.21625977 22.27475586 1.22705078 23.38623047 C1 26 1 26 -1 28 C-2.45687763 18.71240512 -3.32834862 8.94493691 0 0 Z " fill="#43985F" transform="translate(719,922)"/>
<path d="M0 0 C0.66 0.33 1.32 0.66 2 1 C-2.45189089 6.89768182 -6.6257809 11.3015647 -14 13 C-18.69799474 13.39572742 -23.31035881 13.53560311 -28 13 C-28.66 12.34 -29.32 11.68 -30 11 C-28.24623047 10.92652344 -28.24623047 10.92652344 -26.45703125 10.8515625 C-24.90883196 10.77649829 -23.36065599 10.70095205 -21.8125 10.625 C-21.04357422 10.5940625 -20.27464844 10.563125 -19.48242188 10.53125 C-15.30509838 10.31610888 -11.75784468 10.02850645 -8 8 C-7.67 7.34 -7.34 6.68 -7 6 C-6.01 6 -5.02 6 -4 6 C-3.67 4.68 -3.34 3.36 -3 2 C-2.01 2 -1.02 2 0 2 C0 1.34 0 0.68 0 0 Z " fill="#DEF7E7" transform="translate(703,706)"/>
<path d="M0 0 C0.99 0.33 1.98 0.66 3 1 C2.03900391 1.85271484 2.03900391 1.85271484 1.05859375 2.72265625 C-4.11732466 7.3431855 -9.15028977 12.03950958 -14 17 C-14.97792486 17.9804069 -15.95696483 18.95970375 -16.9375 19.9375 C-17.9584375 20.9584375 -17.9584375 20.9584375 -19 22 C-18.41638452 18.06059549 -16.57214649 15.97827488 -14 13 C-13.44570313 12.319375 -12.89140625 11.63875 -12.3203125 10.9375 C-11.71960938 10.215625 -11.11890625 9.49375 -10.5 8.75 C-9.9328125 8.06421875 -9.365625 7.3784375 -8.78125 6.671875 C-6.8364437 4.84648663 -5.60453768 4.38839597 -3 4 C-3 3.34 -3 2.68 -3 2 C-2.01 1.34 -1.02 0.68 0 0 Z " fill="#E5FBEC" transform="translate(602,567)"/>
<path d="M0 0 C0.33 0 0.66 0 1 0 C2.8182737 9.0553631 1.53515337 17.11103823 -0.25 26.0625 C-0.4668042 27.16907959 -0.6836084 28.27565918 -0.90698242 29.41577148 C-2.75502341 38.17732775 -2.75502341 38.17732775 -6 42 C-5.36383499 35.45942846 -4.30633067 29.12407231 -3 22.6875 C-1.50373101 15.11613888 -0.31983471 7.72400817 0 0 Z " fill="#D4F0DF" transform="translate(944,732)"/>
<path d="M0 0 C0.99 0 1.98 0 3 0 C3.33 0.99 3.66 1.98 4 3 C4.639375 3.556875 5.27875 4.11375 5.9375 4.6875 C9.50594411 8.68848279 9.87704629 13.27864804 10.25 18.5 C9.95980831 22.56268368 9.09972797 26.0822191 8 30 C7.34 29.67 6.68 29.34 6 29 C6.165 28.34 6.33 27.68 6.5 27 C8.23119002 16.61285985 5.41803048 8.78094595 0 0 Z " fill="#5E9A71" transform="translate(816,674)"/>
<path d="M0 0 C-3.19012317 3.50913548 -5.69618458 4.83405986 -10.4375 5.4375 C-14.08747355 6.01381161 -15.94881864 7.02085533 -19 9 C-21.1875 9.8125 -21.1875 9.8125 -23 10 C-23.66 9.34 -24.32 8.68 -25 8 C-21.59146656 6.46044633 -18.17206557 4.94670716 -14.75 3.4375 C-13.78191406 2.99986328 -12.81382812 2.56222656 -11.81640625 2.11132812 C-10.88183594 1.70205078 -9.94726562 1.29277344 -8.984375 0.87109375 C-8.12553711 0.48880615 -7.26669922 0.10651855 -6.38183594 -0.28735352 C-3.7731136 -1.06788452 -2.52328224 -0.92196851 0 0 Z " fill="#62A276" transform="translate(674,529)"/>
<path d="M0 0 C0.66 0.66 1.32 1.32 2 2 C1.505 3.155 1.01 4.31 0.5 5.5 C-1.84646224 11.76461145 -1.30565865 17.47170674 0 24 C-0.99 24 -1.98 24 -3 24 C-4.50162548 20.99674904 -4.14368999 17.91443758 -4.125 14.625 C-4.12886719 13.95210937 -4.13273438 13.27921875 -4.13671875 12.5859375 C-4.13014641 9.24719055 -4.03109003 6.19146915 -3 3 C-2.34 3 -1.68 3 -1 3 C-0.67 2.01 -0.34 1.02 0 0 Z " fill="#599E70" transform="translate(774,679)"/>
<path d="M0 0 C0.6875 1.7578125 0.6875 1.7578125 1 4 C-2.15397616 9.12521126 -7.78874758 14.91710562 -13 18 C-13.99 17.67 -14.98 17.34 -16 17 C-13.46112947 14.45656315 -10.91751033 11.91860857 -8.359375 9.39453125 C-7.49828125 8.54246094 -6.6371875 7.69039062 -5.75 6.8125 C-4.87859375 5.95269531 -4.0071875 5.09289062 -3.109375 4.20703125 C-0.97005762 2.18568934 -0.97005762 2.18568934 0 0 Z " fill="#579A6D" transform="translate(846,773)"/>
<path d="M0 0 C5.06514861 5.55532428 5.16136578 10.75237644 5.3125 18.0625 C5.36857422 19.84333984 5.36857422 19.84333984 5.42578125 21.66015625 C4.92588462 25.58136379 3.69812079 27.18480099 1 30 C0.34 29.67 -0.32 29.34 -1 29 C-0.505 28.13375 -0.01 27.2675 0.5 26.375 C3.18634018 20.1068729 3.11935146 12.05282426 1.3203125 5.5390625 C0.47370399 3.46319474 0.47370399 3.46319474 -1 1 C-0.67 0.67 -0.34 0.34 0 0 Z " fill="#6BA67F" transform="translate(705,678)"/>
<path d="M0 0 C0.33 0 0.66 0 1 0 C1.93036641 12.78180308 1.93036641 25.21819692 1 38 C0.67 38 0.34 38 0 38 C-0.87289406 32.0005853 -1.15728852 26.18371024 -1.125 20.125 C-1.12306641 19.2474707 -1.12113281 18.36994141 -1.11914062 17.46582031 C-1.07983506 11.58527047 -0.7779616 5.834712 0 0 Z " fill="#6FA782" transform="translate(536,701)"/>
<path d="M0 0 C0.33 0 0.66 0 1 0 C1.0272415 1.41655793 1.04650467 2.83327045 1.0625 4.25 C1.07410156 5.03890625 1.08570313 5.8278125 1.09765625 6.640625 C1 9 1 9 0.45703125 11.05078125 C-0.20399317 13.3173667 -0.20399317 13.3173667 0.625 16.9375 C1.0878809 20.078059 1.04628683 20.89640567 -0.3125 23.9375 C-2 26 -2 26 -4 27 C-2.07289294 7.99544419 -2.07289294 7.99544419 0 0 Z " fill="#5A9B6F" transform="translate(541,670)"/>
<path d="M0 0 C1.42603626 2.27625977 2.11478947 3.41809429 1.58447266 6.10644531 C1.2807373 6.83959961 0.97700195 7.57275391 0.6640625 8.328125 C0.18066406 9.52695312 0.18066406 9.52695312 -0.3125 10.75 C-0.8384375 11.9875 -0.8384375 11.9875 -1.375 13.25 C-1.88933594 14.51070312 -1.88933594 14.51070312 -2.4140625 15.796875 C-3.26242958 17.87066119 -4.124667 19.93748473 -5 22 C-5.66 22 -6.32 22 -7 22 C-6.27246734 18.19281452 -5.38723428 14.44514431 -4.4375 10.6875 C-4.16808594 9.61886719 -3.89867187 8.55023437 -3.62109375 7.44921875 C-3.41613281 6.64097656 -3.21117187 5.83273437 -3 5 C-2.34 5 -1.68 5 -1 5 C-0.67 3.35 -0.34 1.7 0 0 Z " fill="#5E9C72" transform="translate(934,777)"/>
<path d="M0 0 C1.70542969 0.70576172 1.70542969 0.70576172 3.4453125 1.42578125 C12.89488489 5.26126841 21.90770379 8.29631656 32 10 C32 10.33 32 10.66 32 11 C20.14326453 11.69745503 9.99958868 8.19213006 0 2 C0 1.34 0 0.68 0 0 Z " fill="#E2FAEA" transform="translate(694,766)"/>
<path d="M0 0 C-3.45990791 2.94798276 -7.30895489 4.50554762 -11.5 6.125 C-12.16386719 6.38925781 -12.82773437 6.65351562 -13.51171875 6.92578125 C-16.63709408 8.15472125 -19.70789925 9.31134627 -23 10 C-22.67 8.68 -22.34 7.36 -22 6 C-21.01 5.938125 -20.02 5.87625 -19 5.8125 C-15.72464571 5.37666657 -13.70650648 4.3087955 -11 2.4375 C-7.08731938 -0.22190011 -4.66167484 -0.48559113 0 0 Z " fill="#589B70" transform="translate(788,764)"/>
<path d="M0 0 C0.66 0.33 1.32 0.66 2 1 C-0.94324818 5.04696625 -4.32728114 8.14284931 -8.1171875 11.359375 C-10.11300564 13.03739463 -10.11300564 13.03739463 -12.125 15.3125 C-14.53479108 17.48131198 -16.90339692 18.15547189 -20 19 C-16.56658612 14.27905591 -12.4142623 10.75529868 -8 7 C-6.49810284 5.68967135 -4.99802388 4.377255 -3.5 3.0625 C-2.33333333 2.04166667 -1.16666667 1.02083333 0 0 Z " fill="#DDF6E7" transform="translate(739,970)"/>
<path d="M0 0 C5.8951682 0.1503768 9.78202261 1.36556015 14.17651367 5.43823242 C15.63057617 6.73760742 15.63057617 6.73760742 17.11401367 8.06323242 C19.17651367 10.43823242 19.17651367 10.43823242 20.17651367 13.43823242 C19.18651367 13.10823242 18.19651367 12.77823242 17.17651367 12.43823242 C16.48901367 10.37573242 16.48901367 10.37573242 16.17651367 8.43823242 C15.18651367 8.43823242 14.19651367 8.43823242 13.17651367 8.43823242 C11.84318034 7.10489909 10.50984701 5.77156576 9.17651367 4.43823242 C4.83585324 2.12749267 0.66081124 2.20177868 -4.13598633 2.31323242 C-5.24683594 2.32676758 -5.24683594 2.32676758 -6.38012695 2.34057617 C-8.194721 2.36399029 -10.00914704 2.39985627 -11.82348633 2.43823242 C-8.59518971 -0.79006419 -4.33945039 0.00144568 0 0 Z " fill="#D7F3E2" transform="translate(799.823486328125,667.561767578125)"/>
<path d="M0 0 C0.66 0 1.32 0 2 0 C0.63666252 2.87699578 -0.91345401 5.44037462 -2.75 8.0390625 C-3.2759375 8.78414062 -3.801875 9.52921875 -4.34375 10.296875 C-4.8903125 11.06515625 -5.436875 11.8334375 -6 12.625 C-6.5465625 13.40101563 -7.093125 14.17703125 -7.65625 14.9765625 C-11.73549107 20.73549107 -11.73549107 20.73549107 -14 23 C-13.67 21.02 -13.34 19.04 -13 17 C-12.34 17 -11.68 17 -11 17 C-10.87625 16.38125 -10.7525 15.7625 -10.625 15.125 C-10 13 -10 13 -8 11 C-7.3574765 8.93125966 -7.3574765 8.93125966 -7 7 C-6.34 7 -5.68 7 -5 7 C-5 6.34 -5 5.68 -5 5 C-4.34 5 -3.68 5 -3 5 C-2.690625 4.360625 -2.38125 3.72125 -2.0625 3.0625 C-1 1 -1 1 0 0 Z " fill="#DEF8E7" transform="translate(580,590)"/>
<path d="M0 0 C0.33 0.66 0.66 1.32 1 2 C-3.32893185 7.18419194 -7.76564995 11.72706118 -13 16 C-13.33 15.01 -13.66 14.02 -14 13 C-12.23223041 11.20521865 -10.46097441 9.4141293 -8.6875 7.625 C-8.18798828 7.11710938 -7.68847656 6.60921875 -7.17382812 6.0859375 C-4.87457613 3.77145867 -2.72478775 1.81652517 0 0 Z " fill="#5C9E70" transform="translate(605,567)"/>
<path d="M0 0 C0.84755859 0.04833984 1.69511719 0.09667969 2.56835938 0.14648438 C3.44943359 0.20255859 4.33050781 0.25863281 5.23828125 0.31640625 C6.13095703 0.36861328 7.02363281 0.42082031 7.94335938 0.47460938 C10.14619685 0.60418805 12.34856998 0.73914871 14.55078125 0.87890625 C14.55078125 1.53890625 14.55078125 2.19890625 14.55078125 2.87890625 C13.41640625 2.8325 12.28203125 2.78609375 11.11328125 2.73828125 C-0.2497166 2.31440942 -0.2497166 2.31440942 -10.44921875 6.87890625 C-11.10921875 6.21890625 -11.76921875 5.55890625 -12.44921875 4.87890625 C-8.20878762 1.3261126 -5.56217936 -0.33597057 0 0 Z " fill="#68A47C" transform="translate(677.44921875,666.12109375)"/>
<path d="M0 0 C0.66 0.66 1.32 1.32 2 2 C0.10548397 4.06372321 -1.79056563 6.12600157 -3.6875 8.1875 C-4.21794922 8.76564453 -4.74839844 9.34378906 -5.29492188 9.93945312 C-8.4569327 13.3730477 -11.67475068 16.72410503 -15 20 C-15 16 -15 16 -12.83203125 13.61328125 C-11.89746094 12.75089844 -10.96289062 11.88851562 -10 11 C-8.21822291 9.07255938 -6.4473074 7.13502019 -4.6875 5.1875 C-3.36298828 3.72376953 -3.36298828 3.72376953 -2.01171875 2.23046875 C-1.34785156 1.49441406 -0.68398438 0.75835938 0 0 Z " fill="#619B74" transform="translate(900,842)"/>
<path d="M0 0 C0.33 0.66 0.66 1.32 1 2 C-4.75 0.125 -4.75 0.125 -7 -1 C-8.64445394 -1.07051689 -10.29167854 -1.08425094 -11.9375 -1.0625 C-13.25041016 -1.04896484 -13.25041016 -1.04896484 -14.58984375 -1.03515625 C-15.38519531 -1.02355469 -16.18054688 -1.01195312 -17 -1 C-17.99 -1 -18.98 -1 -20 -1 C-22.34210921 -0.36485174 -24.67684969 0.2986716 -27 1 C-19.87349057 -6.89006401 -8.49259051 -5.30061458 0 0 Z " fill="#DFF9E8" transform="translate(667,743)"/>
<path d="M0 0 C0.99 0.99 1.98 1.98 3 3 C-0.3 8.94 -3.6 14.88 -7 21 C-8.12327961 16.50688156 -7.98106476 15.96212951 -6 12 C-4.73748744 9.96617751 -3.44987595 7.95604557 -2.12109375 5.96484375 C-0.98339089 3.97089065 -0.44433547 2.2416475 0 0 Z " fill="#5F9B73" transform="translate(922,805)"/>
<path d="M0 0 C1.41655793 -0.0272415 2.83327045 -0.04650467 4.25 -0.0625 C5.43335938 -0.07990234 5.43335938 -0.07990234 6.640625 -0.09765625 C8.90691002 -0.00385306 10.8288895 0.36758937 13 1 C13 1.66 13 2.32 13 3 C17.62 3 22.24 3 27 3 C26.67 3.66 26.34 4.32 26 5 C17.42885527 5.44333507 7.28294951 4.85529968 0 0 Z " fill="#679F7B" transform="translate(709,772)"/>
<path d="M0 0 C0.33 0 0.66 0 1 0 C1.08685287 3.29150125 1.14033895 6.5827096 1.1875 9.875 C1.22520508 11.28072266 1.22520508 11.28072266 1.26367188 12.71484375 C1.27333984 13.61074219 1.28300781 14.50664063 1.29296875 15.4296875 C1.3086792 16.25710449 1.32438965 17.08452148 1.34057617 17.93701172 C1.22818604 18.61779785 1.1157959 19.29858398 1 20 C0.01 20.66 -0.98 21.32 -2 22 C-3.125 16.375 -3.125 16.375 -2 13 C-1.69705618 10.16831682 -1.49244942 7.33597165 -1.28125 4.49609375 C-1 2 -1 2 0 0 Z " fill="#40925B" transform="translate(543,666)"/>
<path d="M0 0 C0.66 0 1.32 0 2 0 C0.58694857 3.27308852 -1.08021351 5.27600181 -3.75 7.625 C-4.40484375 8.21539063 -5.0596875 8.80578125 -5.734375 9.4140625 C-10.55155586 12.7860891 -15.10778696 13.24269823 -20.875 13.125 C-22.02742187 13.10695313 -23.17984375 13.08890625 -24.3671875 13.0703125 C-25.23601563 13.04710937 -26.10484375 13.02390625 -27 13 C-27 12.67 -27 12.34 -27 12 C-25.87980469 11.89042969 -24.75960937 11.78085937 -23.60546875 11.66796875 C-22.13273778 11.50850107 -20.66008535 11.34830683 -19.1875 11.1875 C-18.44951172 11.11724609 -17.71152344 11.04699219 -16.95117188 10.97460938 C-12.74529097 10.54705338 -12.74529097 10.54705338 -9.14453125 8.515625 C-8.76683594 8.01546875 -8.38914062 7.5153125 -8 7 C-7.175 6.525625 -6.35 6.05125 -5.5 5.5625 C-2.92751794 3.95469871 -1.75312049 2.42097591 0 0 Z " fill="#DBF8E5" transform="translate(818,706)"/>
<path d="M0 0 C1.05767578 1.07507813 1.05767578 1.07507813 2.13671875 2.171875 C5.86830816 5.90478067 9.83371071 9.37594246 13.76953125 12.890625 C14.50558594 13.58671875 15.24164062 14.2828125 16 15 C16 15.33 16 15.66 16 16 C14.35 16 12.7 16 11 16 C11 15.01 11 14.02 11 13 C10.01 12.67 9.02 12.34 8 12 C8 11.34 8 10.68 8 10 C7.01 9.67 6.02 9.34 5 9 C2.37884447 6.14756605 0.57468925 3.87915244 0 0 Z " fill="#5E9A71" transform="translate(634,774)"/>
<path d="M0 0 C4.83285678 0.61959702 8.03797315 1.67960988 11.25 5.375 C11.79140625 5.98085938 12.3328125 6.58671875 12.890625 7.2109375 C13.25671875 7.80132813 13.6228125 8.39171875 14 9 C13.67 9.99 13.34 10.98 13 12 C12.12988281 11.16855469 12.12988281 11.16855469 11.2421875 10.3203125 C5.40928448 4.81449213 5.40928448 4.81449213 -2 2 C-1.34 1.34 -0.68 0.68 0 0 Z " fill="#5D9E73" transform="translate(660,738)"/>
<path d="M0 0 C5.61 0 11.22 0 17 0 C17.33 0.66 17.66 1.32 18 2 C14.39006828 3.13480527 11.0157673 3.10015767 7.25 3.0625 C6.07953125 3.05347656 4.9090625 3.04445313 3.703125 3.03515625 C2.81109375 3.02355469 1.9190625 3.01195312 1 3 C0.67 2.01 0.34 1.02 0 0 Z " fill="#4C9464" transform="translate(646,736)"/>
<path d="M0 0 C-0.57621094 0.27328125 -1.15242187 0.5465625 -1.74609375 0.828125 C-7.82243546 3.98740145 -12.49847087 7.43348603 -15 14 C-15.66 13.34 -16.32 12.68 -17 12 C-8.05597015 -2.84328358 -8.05597015 -2.84328358 0 0 Z " fill="#5E9B71" transform="translate(648,739)"/>
<path d="M0 0 C0.33 0 0.66 0 1 0 C1.50881977 2.6652464 2.00720141 5.33178419 2.5 8 C2.64308594 8.74378906 2.78617188 9.48757813 2.93359375 10.25390625 C3.84632568 15.25220015 4.13856719 19.91920316 4 25 C3.67 25 3.34 25 3 25 C3 23.35 3 21.7 3 20 C2.34 19.67 1.68 19.34 1 19 C-0.20255163 14.92342562 -0.10196591 10.91035258 -0.0625 6.6875 C-0.05347656 5.43324219 -0.04445313 4.17898438 -0.03515625 2.88671875 C-0.01775391 1.45779297 -0.01775391 1.45779297 0 0 Z " fill="#72A884" transform="translate(940,678)"/>
<path d="M0 0 C1.32 0.33 2.64 0.66 4 1 C-1.94 6.445 -1.94 6.445 -8 12 C-8.99 11.67 -9.98 11.34 -11 11 C-10.67 10.34 -10.34 9.68 -10 9 C-9.34 9 -8.68 9 -8 9 C-8 8.34 -8 7.68 -8 7 C-7.34 7 -6.68 7 -6 7 C-6 6.34 -6 5.68 -6 5 C-4.37064759 3.62131719 -2.70250393 2.28725907 -1 1 C-0.67 0.67 -0.34 0.34 0 0 Z " fill="#68A179" transform="translate(881,862)"/>
<path d="M0 0 C0.66 0 1.32 0 2 0 C2.53293835 1.74635165 3.05090663 3.49727652 3.5625 5.25 C3.85253906 6.22453125 4.14257812 7.1990625 4.44140625 8.203125 C4.99249836 10.96243932 4.93789609 12.3912824 4 15 C3.34 15 2.68 15 2 15 C2.33 13.35 2.66 11.7 3 10 C2.34 10 1.68 10 1 10 C-0.80411967 7.24075815 -1.0127245 6.11027897 -0.625 2.75 C-0.41875 1.8425 -0.2125 0.935 0 0 Z " fill="#5D9E73" transform="translate(929,645)"/>
<path d="M0 0 C0.99 0.33 1.98 0.66 3 1 C-0.80411834 4.91939465 -4.81576108 8.49102731 -9 12 C-9 8 -9 8 -7.625 6.25 C-6 5 -6 5 -4 5 C-4 4.34 -4 3.68 -4 3 C-2.68 2.67 -1.36 2.34 0 2 C0 1.34 0 0.68 0 0 Z " fill="#5E9F75" transform="translate(733,972)"/>
<path d="M0 0 C5.28 0.99 10.56 1.98 16 3 C13.61629091 5.38370909 13.0063401 5.29588602 9.75 5.3125 C5.5227526 5.23737929 2.63998292 4.23998949 -1 2 C-0.67 1.34 -0.34 0.68 0 0 Z " fill="#56996E" transform="translate(701,817)"/>
<path d="M0 0 C0.66 0.33 1.32 0.66 2 1 C1.45015228 4.87511727 -0.27555331 6.59576506 -3.0625 9.25 C-3.79597656 9.95640625 -4.52945313 10.6628125 -5.28515625 11.390625 C-5.85105469 11.92171875 -6.41695312 12.4528125 -7 13 C-7.66 12.34 -8.32 11.68 -9 11 C-6.03 7.37 -3.06 3.74 0 0 Z " fill="#549C6A" transform="translate(588,583)"/>
<path d="M0 0 C1.7634375 0.13535156 1.7634375 0.13535156 3.5625 0.2734375 C6.74164192 0.59857701 9.85570105 1.05940964 13 1.625 C13 1.955 13 2.285 13 2.625 C9.41673499 2.68314085 5.83359162 2.71864357 2.25 2.75 C1.23421875 2.76675781 0.2184375 2.78351562 -0.828125 2.80078125 C-1.8078125 2.80722656 -2.7875 2.81367187 -3.796875 2.8203125 C-5.14797363 2.83602295 -5.14797363 2.83602295 -6.52636719 2.85205078 C-9.13926856 2.61221676 -10.75664666 1.94812064 -13 0.625 C-8.51120694 -0.29191809 -4.56072024 -0.37005844 0 0 Z " fill="#5C9A70" transform="translate(763,517.375)"/>
<path d="M0 0 C3.02990095 1.71967351 5.76327296 3.29238306 8 6 C8 6.66 8 7.32 8 8 C8.556875 8.2475 9.11375 8.495 9.6875 8.75 C12.39971127 10.21606015 14.63587365 12.02989471 17 14 C16.67 14.66 16.34 15.32 16 16 C10.24066911 11.43425277 4.54629742 6.82286732 -1 2 C-0.67 1.34 -0.34 0.68 0 0 Z " fill="#DAF5E2" transform="translate(642,780)"/>
<path d="M0 0 C3.19455143 3.19455143 2.96062327 6.39950485 3.25 10.8125 C3.21545122 15.3470269 1.77448221 18.85954152 0 23 C-1.03084036 19.90747893 -0.78303493 18.43407274 -0.2578125 15.31640625 C0.30695754 10.24203298 0.06900422 5.09864518 0 0 Z " fill="#D8F0E0" transform="translate(821,683)"/>
<path d="M0 0 C5.3503559 0.57021934 10.67787852 1.20734361 16 2 C16 3.32 16 4.64 16 6 C14.26982492 5.54548816 12.54090123 5.08621143 10.8125 4.625 C9.84957031 4.36976563 8.88664063 4.11453125 7.89453125 3.8515625 C5.17789793 3.05233704 2.60862825 2.0968638 0 1 C0 0.67 0 0.34 0 0 Z " fill="#64A078" transform="translate(663,904)"/>
<path d="M0 0 C-0.33 0.66 -0.66 1.32 -1 2 C-1.93972656 1.98259766 -1.93972656 1.98259766 -2.8984375 1.96484375 C-4.12433594 1.95130859 -4.12433594 1.95130859 -5.375 1.9375 C-6.59316406 1.92009766 -6.59316406 1.92009766 -7.8359375 1.90234375 C-10.04937142 1.85533666 -10.04937142 1.85533666 -12 3 C-14.3400417 2.71758117 -16.67504723 2.38749213 -19 2 C-13.71004335 -0.93886481 -5.66224432 -2.83112216 0 0 Z " fill="#69A37C" transform="translate(718,519)"/>
<path d="M0 0 C0.33 0.99 0.66 1.98 1 3 C-0.2578125 5.0859375 -0.2578125 5.0859375 -2.125 7.375 C-3.08986328 8.56029297 -3.08986328 8.56029297 -4.07421875 9.76953125 C-6.27796237 12.32194019 -8.54315922 14.69205866 -11 17 C-11.66 16.67 -12.32 16.34 -13 16 C-11.84371094 14.64455078 -11.84371094 14.64455078 -10.6640625 13.26171875 C-9.65095837 12.07038333 -8.63794212 10.87897317 -7.625 9.6875 C-7.11710938 9.09259766 -6.60921875 8.49769531 -6.0859375 7.88476562 C-5.59609375 7.30791016 -5.10625 6.73105469 -4.6015625 6.13671875 C-4.15119629 5.60780029 -3.70083008 5.07888184 -3.23681641 4.53393555 C-2.07125727 3.08837533 -1.03003696 1.54505544 0 0 Z " fill="#DEF7E7" transform="translate(907,836)"/>
<path d="M0 0 C2.33364352 2.92903058 4.04960836 5.88568203 5.6875 9.25 C6.12449219 10.14203125 6.56148437 11.0340625 7.01171875 11.953125 C7.33785156 12.62859375 7.66398438 13.3040625 8 14 C6.13671875 13.73828125 6.13671875 13.73828125 4 13 C2.76953125 11.29296875 2.76953125 11.29296875 1.8125 9.1875 C1.48894531 8.50042969 1.16539062 7.81335938 0.83203125 7.10546875 C0.02767782 5.07003917 -0.61209383 3.15451498 -1 1 C-0.67 0.67 -0.34 0.34 0 0 Z " fill="#5E9B72" transform="translate(914,614)"/>
<path d="M0 0 C0.33 0 0.66 0 1 0 C1.05416188 1.60379341 1.09286638 3.20811406 1.125 4.8125 C1.14820313 5.70582031 1.17140625 6.59914063 1.1953125 7.51953125 C1 10 1 10 -1 13 C-1.99 13.33 -2.98 13.66 -4 14 C-4.1875 11.6875 -4.1875 11.6875 -4 9 C-3 8 -2 7 -1 6 C-0.83312552 3.41645782 -0.83312552 3.41645782 -1 1 C-0.67 0.67 -0.34 0.34 0 0 Z " fill="#569B6E" transform="translate(941,746)"/>
<path d="M0 0 C6.28980521 0.06470993 10.11103341 1.00606138 15.375 4.375 C15.375 5.035 15.375 5.695 15.375 6.375 C14.818125 6.08625 14.26125 5.7975 13.6875 5.5 C12.924375 5.12875 12.16125 4.7575 11.375 4.375 C10.30765625 3.8490625 10.30765625 3.8490625 9.21875 3.3125 C5.63105874 2.12974464 2.29073704 2.15724004 -1.4375 2.25 C-2.13037109 2.25902344 -2.82324219 2.26804687 -3.53710938 2.27734375 C-5.23322395 2.30073843 -6.92915871 2.33660359 -8.625 2.375 C-5.81406338 -0.43593662 -3.9236708 0.04200932 0 0 Z " fill="#E3FAEC" transform="translate(681.625,667.625)"/>
<path d="M0 0 C5 5 10 10 15 15 C11.16076501 15 10.10043056 13.49146152 7.47070312 10.88085938 C6.92349609 10.32205078 6.37628906 9.76324219 5.8125 9.1875 C5.25369141 8.64029297 4.69488281 8.09308594 4.11914062 7.52929688 C0 3.3799794 0 3.3799794 0 0 Z " fill="#E1FBEA" transform="translate(584,848)"/>
<path d="M0 0 C0.66 0.66 1.32 1.32 2 2 C-3.01571703 5.00943022 -6.30182562 5.46706347 -12 5 C-12.99 4.34 -13.98 3.68 -15 3 C-14.08476563 2.86722656 -13.16953125 2.73445312 -12.2265625 2.59765625 C-11.03804687 2.42105469 -9.84953125 2.24445312 -8.625 2.0625 C-7.44164062 1.88847656 -6.25828125 1.71445312 -5.0390625 1.53515625 C-2.09297619 1.16537214 -2.09297619 1.16537214 0 0 Z " fill="#609D74" transform="translate(810,716)"/>
<path d="M0 0 C0.99 0.495 0.99 0.495 2 1 C2 1.99 2 2.98 2 4 C2.66 4 3.32 4 4 4 C9 9.47619048 9 9.47619048 9 12 C9.66 12 10.32 12 11 12 C10.67 12.66 10.34 13.32 10 14 C2.1950222 7.77740126 2.1950222 7.77740126 0 3 C0 2.01 0 1.02 0 0 Z " fill="#DAF6E3" transform="translate(659,702)"/>
<path d="M0 0 C0.66 0.33 1.32 0.66 2 1 C2.10477512 6.78591511 1.99250545 12.29309366 1 18 C0.67 18 0.34 18 0 18 C-0.19430855 15.3753399 -0.38073238 12.75053235 -0.5625 10.125 C-0.61857422 9.37863281 -0.67464844 8.63226562 -0.73242188 7.86328125 C-1.11328125 2.2265625 -1.11328125 2.2265625 0 0 Z " fill="#639E79" transform="translate(942,733)"/>
<path d="M0 0 C0.33 0 0.66 0 1 0 C1.22384382 1.72722728 1.42839969 3.45696007 1.625 5.1875 C1.74101563 6.15042969 1.85703125 7.11335937 1.9765625 8.10546875 C2.00194942 11.24075323 1.34359283 13.19486535 0 16 C-0.99 16 -1.98 16 -3 16 C-2.5359375 14.824375 -2.5359375 14.824375 -2.0625 13.625 C-0.73664193 9.10148422 -0.35188915 4.68568186 0 0 Z " fill="#64A278" transform="translate(850,757)"/>
<path d="M0 0 C-2.28814723 2.28814723 -3.80751622 2.75451161 -6.875 3.6875 C-7.73867188 3.95949219 -8.60234375 4.23148438 -9.4921875 4.51171875 C-12.08694932 5.01692938 -13.530785 4.85561171 -16 4 C-10.96003362 0.64002241 -6.00290323 -0.29282455 0 0 Z " fill="#E1FAE9" transform="translate(788,813)"/>
<path d="M0 0 C0.33 0 0.66 0 1 0 C1.50588147 1.91512272 2.00448391 3.83216922 2.5 5.75 C2.7784375 6.81734375 3.056875 7.8846875 3.34375 8.984375 C4 12 4 12 4 16 C3.34 16 2.68 16 2 16 C-0.27141454 10.60539047 -0.20413361 5.73842251 0 0 Z " fill="#D7F3E0" transform="translate(539,758)"/>
<path d="M0 0 C-1.38188453 3.21043882 -2.92421903 5.04936365 -5.625 7.25 C-6.57246094 8.03117188 -6.57246094 8.03117188 -7.5390625 8.828125 C-8.02117188 9.21484375 -8.50328125 9.6015625 -9 10 C-7.81442213 5.25768853 -5.66615657 0 0 0 Z " fill="#E6FAEE" transform="translate(671,671)"/>
<path d="M0 0 C-0.33 0.66 -0.66 1.32 -1 2 C-2.62463842 2.05395478 -4.24978541 2.09277195 -5.875 2.125 C-6.77992188 2.14820313 -7.68484375 2.17140625 -8.6171875 2.1953125 C-11 2 -11 2 -13 0 C-8.38926889 -1.29676812 -4.66159911 -0.71109139 0 0 Z " fill="#44955D" transform="translate(691,526)"/>
<path d="M0 0 C0.99 0.33 1.98 0.66 3 1 C3 1.66 3 2.32 3 3 C3.99 3 4.98 3 6 3 C6 3.99 6 4.98 6 6 C3.03 5.01 0.06 4.02 -3 3 C-2.01 2.01 -1.02 1.02 0 0 Z " fill="#60A376" transform="translate(657,898)"/>
<path d="M0 0 C2.0625 0.4375 2.0625 0.4375 4 1 C2.4050992 2.19991599 0.79873853 3.38461318 -0.8125 4.5625 C-1.70582031 5.22378906 -2.59914063 5.88507812 -3.51953125 6.56640625 C-4.33808594 7.03949219 -5.15664063 7.51257813 -6 8 C-6.99 7.67 -7.98 7.34 -9 7 C-6.62997587 4.38049964 -4.04546021 2.76316117 -1 1 C-0.67 0.67 -0.34 0.34 0 0 Z " fill="#619C75" transform="translate(857,882)"/>
<path d="M0 0 C0 0.99 0 1.98 0 3 C-4.79137588 4.6290678 -8.05632546 5.20577428 -13 4 C-8.84541088 1.76291355 -4.76123067 0 0 0 Z " fill="#65A178" transform="translate(785,815)"/>
<path d="M0 0 C-1.11328125 1.48828125 -1.11328125 1.48828125 -3 3 C-5.91796875 3.29296875 -5.91796875 3.29296875 -9.1875 3.1875 C-10.27417969 3.16042969 -11.36085938 3.13335938 -12.48046875 3.10546875 C-13.31191406 3.07066406 -14.14335938 3.03585937 -15 3 C-12.22199328 1.14799552 -10.66558555 0.5142048 -7.5 -0.1875 C-6.7265625 -0.36667969 -5.953125 -0.54585937 -5.15625 -0.73046875 C-3 -1 -3 -1 0 0 Z " fill="#5C9E72" transform="translate(694,523)"/>
<path d="M0 0 C10.88028169 -0.57042254 10.88028169 -0.57042254 15 3 C15 3.66 15 4.32 15 5 C13.24859857 4.54705135 11.49892656 4.08741252 9.75 3.625 C8.77546875 3.36976563 7.8009375 3.11453125 6.796875 2.8515625 C4.34162697 2.10401491 2.24382595 1.22876183 0 0 Z " fill="#DBF6E3" transform="translate(791,522)"/>
<path d="M0 0 C0.99 0.33 1.98 0.66 3 1 C-0.16952847 4.26008643 -3.39937989 7.22237877 -7 10 C-6.75 7.625 -6.75 7.625 -6 5 C-4.0625 3.875 -4.0625 3.875 -2 3 C-1.34 2.01 -0.68 1.02 0 0 Z " fill="#649F77" transform="translate(763,946)"/>
<path d="M0 0 C0 3 0 3 -2.1875 5.26171875 C-3.115625 6.06222656 -4.04375 6.86273437 -5 7.6875 C-5.928125 8.49574219 -6.85625 9.30398438 -7.8125 10.13671875 C-8.8953125 11.05904297 -8.8953125 11.05904297 -10 12 C-10.66 11.67 -11.32 11.34 -12 11 C-8.04 7.37 -4.08 3.74 0 0 Z " fill="#DDF8E6" transform="translate(785,930)"/>
<path d="M0 0 C-2.67477931 2.67477931 -5.492975 3.6464114 -9 5 C-9.99 5 -10.98 5 -12 5 C-12 4.34 -12 3.68 -12 3 C-8.02806853 -0.12940055 -4.95769796 -0.29162929 0 0 Z " fill="#DFF9E8" transform="translate(800,808)"/>
<path d="M0 0 C3 1 3 1 4.203125 2.70703125 C4.54859375 3.40183594 4.8940625 4.09664062 5.25 4.8125 C5.60578125 5.49957031 5.9615625 6.18664062 6.328125 6.89453125 C7.11193544 9.35077442 6.84119973 10.60042386 6 13 C4.99491199 11.21118264 3.99607264 9.41885304 3 7.625 C2.1646875 6.12839844 2.1646875 6.12839844 1.3125 4.6015625 C0 2 0 2 0 0 Z " fill="#629E75" transform="translate(555,803)"/>
<path d="M0 0 C0 1.32 0 2.64 0 4 C-1.60875 3.071875 -1.60875 3.071875 -3.25 2.125 C-5.79780984 0.6676321 -8.35259355 -0.72924491 -11 -2 C-6.74891557 -3.87047715 -3.9091836 -1.87941519 0 0 Z " fill="#5E9E75" transform="translate(843,740)"/>
<path d="M0 0 C0.33 1.32 0.66 2.64 1 4 C-4.17578125 7.22265625 -4.17578125 7.22265625 -6 8 C-6.99 7.67 -7.98 7.34 -9 7 C-8.1646875 6.38125 -8.1646875 6.38125 -7.3125 5.75 C-4.83804044 3.87743601 -2.4164771 1.94660656 0 0 Z " fill="#5A9C70" transform="translate(701,711)"/>
<path d="M0 0 C0.66 0.66 1.32 1.32 2 2 C1.401875 2.7425 0.80375 3.485 0.1875 4.25 C-1.58173222 6.47417764 -3.30860915 8.71662235 -5 11 C-5.125 5.25 -5.125 5.25 -4 3 C-3.34 3 -2.68 3 -2 3 C-2 2.34 -2 1.68 -2 1 C-1.34 0.67 -0.68 0.34 0 0 Z " fill="#56986D" transform="translate(663,673)"/>
<path d="M0 0 C0.33 0 0.66 0 1 0 C1 1.98 1 3.96 1 6 C0.34 6 -0.32 6 -1 6 C-1.66 7.98 -2.32 9.96 -3 12 C-3.66 11.01 -4.32 10.02 -5 9 C-3.35 6.03 -1.7 3.06 0 0 Z " fill="#5E9E74" transform="translate(565,614)"/>
<path d="M0 0 C3.37462715 0.54723683 5.08235 1.0549 8 3 C8 3.66 8 4.32 8 5 C8.99 5.33 9.98 5.66 11 6 C10.34 6.66 9.68 7.32 9 8 C7.49712782 6.85793642 5.99776716 5.71125043 4.5 4.5625 C3.6646875 3.92441406 2.829375 3.28632812 1.96875 2.62890625 C1.3190625 2.09136719 0.669375 1.55382812 0 1 C0 0.67 0 0.34 0 0 Z " fill="#5E9C71" transform="translate(612,874)"/>
<path d="M0 0 C1.41805831 0.28482368 2.83440379 0.57818144 4.25 0.875 C5.03890625 1.03742187 5.8278125 1.19984375 6.640625 1.3671875 C8.96831144 1.99150075 10.89031952 2.84838542 13 4 C11.58376784 4.05447047 10.16691809 4.09300508 8.75 4.125 C7.96109375 4.14820313 7.1721875 4.17140625 6.359375 4.1953125 C3.79268059 3.9828378 2.2083933 3.28654105 0 2 C0 1.34 0 0.68 0 0 Z " fill="#62A076" transform="translate(788,522)"/>
<path d="M0 0 C0.33 0.99 0.66 1.98 1 3 C-2.79692186 5.82561627 -5.18569279 7.56638908 -10 7 C-6.80331012 4.3513141 -3.60513403 2.06007659 0 0 Z " fill="#609D73" transform="translate(816,799)"/>
<path d="M0 0 C-3.1254959 2.64465038 -6.08788267 3.84414715 -10 5 C-9.625 3.0625 -9.625 3.0625 -9 1 C-6.04335481 -0.4783226 -3.25770263 -0.06032783 0 0 Z " fill="#609F75" transform="translate(788,764)"/>
<path d="M0 0 C2.475 0.99 2.475 0.99 5 2 C6.3125 5.625 6.3125 5.625 7 9 C6.34 9.66 5.68 10.32 5 11 C3.35 7.37 1.7 3.74 0 0 Z " fill="#5D9B70" transform="translate(844,744)"/>
<path d="M0 0 C3.25135812 3.56600568 4.7831713 6.12135417 5 11 C4.34 11.66 3.68 12.32 3 13 C1.66666667 9 0.33333333 5 -1 1 C-0.67 0.67 -0.34 0.34 0 0 Z " fill="#5F9C71" transform="translate(705,678)"/>
<path d="M0 0 C4.75 1.875 4.75 1.875 7 3 C7 3.66 7 4.32 7 5 C7.99 5 8.98 5 10 5 C10.33 6.65 10.66 8.3 11 10 C7.19364503 6.79239749 3.45436433 3.59253891 0 0 Z " fill="#D5F1DE" transform="translate(875,567)"/>
<path d="M0 0 C1.48285242 0.95262034 2.96118201 1.91228405 4.4375 2.875 C5.67306641 3.67550781 5.67306641 3.67550781 6.93359375 4.4921875 C9 6 9 6 10 8 C7.03 7.505 7.03 7.505 4 7 C4 6.34 4 5.68 4 5 C3.01 4.67 2.02 4.34 1 4 C0.3125 1.9375 0.3125 1.9375 0 0 Z " fill="#5D9C73" transform="translate(854,551)"/>
<path d="M0 0 C0 3 0 3 -2.1875 5.6875 C-5 8 -5 8 -7.8125 8.3125 C-8.534375 8.209375 -9.25625 8.10625 -10 8 C-6.97727468 4.74475735 -3.74281699 2.38179263 0 0 Z " fill="#609D72" transform="translate(627,550)"/>
<path d="M0 0 C1.60597325 0.45196245 3.20972508 0.91182327 4.8125 1.375 C6.15248047 1.75785156 6.15248047 1.75785156 7.51953125 2.1484375 C10 3 10 3 13 5 C9.52176885 6.15941038 7.54104422 5.70820884 4 5 C4 4.34 4 3.68 4 3 C2.68 2.67 1.36 2.34 0 2 C0 1.34 0 0.68 0 0 Z " fill="#619F75" transform="translate(805,527)"/>
<path d="M0 0 C-1.28813342 0.83878455 -2.58063256 1.67086783 -3.875 2.5 C-4.59429688 2.9640625 -5.31359375 3.428125 -6.0546875 3.90625 C-8 5 -8 5 -10 5 C-10 4.01 -10 3.02 -10 2 C-3.375 -1.125 -3.375 -1.125 0 0 Z " fill="#67A27A" transform="translate(849,891)"/>
<path d="M0 0 C0.33 0.99 0.66 1.98 1 3 C-6.28571429 6.42857143 -6.28571429 6.42857143 -11 6 C-8.84733158 3.84733158 -7.15226256 3.06525538 -4.375 1.875 C-3.55773437 1.52179687 -2.74046875 1.16859375 -1.8984375 0.8046875 C-1.27195312 0.53914062 -0.64546875 0.27359375 0 0 Z " fill="#5E9B72" transform="translate(804,806)"/>
<path d="M0 0 C4.455 2.97 4.455 2.97 9 6 C8.67 6.66 8.34 7.32 8 8 C6 7 4 6 2 5 C2 4.34 2 3.68 2 3 C1.01 3 0.02 3 -1 3 C-0.67 2.01 -0.34 1.02 0 0 Z " fill="#5E9C71" transform="translate(652,791)"/>
<path d="M0 0 C0 3 0 3 -2.25 5.75 C-3.1575 6.4925 -4.065 7.235 -5 8 C-6.32 7.67 -7.64 7.34 -9 7 C-6.03 4.69 -3.06 2.38 0 0 Z " fill="#5A986F" transform="translate(616,558)"/>
<path d="M0 0 C3 1 3 1 4.38671875 3.28515625 C4.81597656 4.20167969 5.24523437 5.11820313 5.6875 6.0625 C6.34298828 7.44115234 6.34298828 7.44115234 7.01171875 8.84765625 C7.33785156 9.55792969 7.66398438 10.26820313 8 11 C7.01 11.495 7.01 11.495 6 12 C4.02 8.04 2.04 4.08 0 0 Z " fill="#DDF6E6" transform="translate(911,608)"/>
<path d="M0 0 C3.63 1.98 7.26 3.96 11 6 C7 7 7 7 3.8125 5.25 C1 3 1 3 0 0 Z " fill="#619E76" transform="translate(841,543)"/>
<path d="M0 0 C-5.445 2.475 -5.445 2.475 -11 5 C-10.67 3.68 -10.34 2.36 -10 1 C-5.95868794 -0.88594563 -4.41169694 -1.10292424 0 0 Z " fill="#D6F6E0" transform="translate(652,537)"/>
<path d="M0 0 C0.80050781 0.12761719 1.60101562 0.25523437 2.42578125 0.38671875 C3.23402344 0.50660156 4.04226563 0.62648438 4.875 0.75 C5.48988281 0.85699219 6.10476563 0.96398437 6.73828125 1.07421875 C3.83871515 2.73297954 1.82192916 3.31034035 -1.51171875 3.19921875 C-3.36796875 3.13734375 -3.36796875 3.13734375 -5.26171875 3.07421875 C-3.53640014 0.90221572 -2.83921072 0.09316926 0 0 Z " fill="#E6FBEE" transform="translate(696.26171875,517.92578125)"/>
<path d="M0 0 C0.33 0 0.66 0 1 0 C1.28571429 7.42857143 1.28571429 7.42857143 -1 11 C-2.23076923 4.6 -2.23076923 4.6 -1.0625 1.5625 C-0.711875 1.046875 -0.36125 0.53125 0 0 Z " fill="#469260" transform="translate(543,757)"/>
<path d="M0 0 C0.763125 0.20625 1.52625 0.4125 2.3125 0.625 C1.755625 0.893125 1.19875 1.16125 0.625 1.4375 C-1.88462523 2.72622647 -4.28084236 4.15426478 -6.6875 5.625 C-6.375 3.75 -6.375 3.75 -5.6875 1.625 C-2.6875 -0.375 -2.6875 -0.375 0 0 Z " fill="#65A47A" transform="translate(645.6875,738.375)"/>
<path d="M0 0 C0.99 0 1.98 0 3 0 C3.33 0.99 3.66 1.98 4 3 C5.29355827 4.37195574 6.62298702 5.71182656 8 7 C7.01 8.485 7.01 8.485 6 10 C4.02 6.7 2.04 3.4 0 0 Z " fill="#559369" transform="translate(816,674)"/>
<path d="M0 0 C2.31 0 4.62 0 7 0 C7.33 1.65 7.66 3.3 8 5 C5.04590299 3.62845496 2.55991624 2.01136276 0 0 Z " fill="#63A477" transform="translate(622,882)"/>
<path d="M0 0 C2.475 0.495 2.475 0.495 5 1 C5 1.66 5 2.32 5 3 C5.66 3 6.32 3 7 3 C6.67 4.32 6.34 5.64 6 7 C4.02 4.69 2.04 2.38 0 0 Z " fill="#6AA57B" transform="translate(594,858)"/>
<path d="M0 0 C4.06623972 1.35541324 5.53046818 3.57009469 8 7 C7.67 7.99 7.34 8.98 7 10 C4.3513141 6.80331012 2.06007659 3.60513403 0 0 Z " fill="#609D73" transform="translate(566,823)"/>
<path d="M0 0 C1.32 0 2.64 0 4 0 C4.33 2.31 4.66 4.62 5 7 C2.5 5.1875 2.5 5.1875 0 3 C0 2.01 0 1.02 0 0 Z " fill="#4B9260" transform="translate(700,672)"/>
<path d="M0 0 C0.66 0.33 1.32 0.66 2 1 C-3.14285714 6.57142857 -3.14285714 6.57142857 -7 7 C-4.78071806 4.09197539 -3.07030857 2.04687238 0 0 Z " fill="#E4FCEB" transform="translate(786,670)"/>
<path d="M0 0 C1.45606519 4.52092968 0.27032841 7.51648796 -1 12 C-1.66 11.67 -2.32 11.34 -3 11 C-2.44894091 7.0507432 -1.61064629 3.65079826 0 0 Z " fill="#6DA780" transform="translate(549,645)"/>
<path d="M0 0 C5.75 1.75 5.75 1.75 8 4 C7.01 4.66 6.02 5.32 5 6 C3.2925002 4.71937515 1.62626404 3.38232443 0 2 C0 1.34 0 0.68 0 0 Z " fill="#61A077" transform="translate(825,535)"/>
<path d="M0 0 C0.99 0.33 1.98 0.66 3 1 C2.19152271 2.16945792 1.37810888 3.33550461 0.5625 4.5 C0.11003906 5.1496875 -0.34242188 5.799375 -0.80859375 6.46875 C-1.20175781 6.9740625 -1.59492187 7.479375 -2 8 C-2.33 8 -2.66 8 -3 8 C-3 6.35 -3 4.7 -3 3 C-2.01 2.67 -1.02 2.34 0 2 C0 1.34 0 0.68 0 0 Z " fill="#639E77" transform="translate(910,828)"/>
<path d="M0 0 C1.65 0 3.3 0 5 0 C5 0.66 5 1.32 5 2 C6.32 2.33 7.64 2.66 9 3 C9 3.66 9 4.32 9 5 C5.22454612 3.90931332 2.52956528 3.0916909 0 0 Z " fill="#DDF8E6" transform="translate(667,801)"/>
<path d="M0 0 C-5.75 5 -5.75 5 -8 5 C-8 4.01 -8 3.02 -8 2 C-3.71900826 -1.23966942 -3.71900826 -1.23966942 0 0 Z " fill="#649F76" transform="translate(799,757)"/>
<path d="M0 0 C3.96 1.98 3.96 1.98 8 4 C7.67 4.66 7.34 5.32 7 6 C4.03 5.505 4.03 5.505 1 5 C0.67 3.35 0.34 1.7 0 0 Z " fill="#5F9F73" transform="translate(781,713)"/>
<path d="M0 0 C2.6486859 3.19668988 4.93992341 6.39486597 7 10 C6.01 10.495 6.01 10.495 5 11 C4.731875 10.401875 4.46375 9.80375 4.1875 9.1875 C3.12897949 6.95745037 3.12897949 6.95745037 1.375 5.5 C0 4 0 4 0 0 Z " fill="#609B74" transform="translate(904,599)"/>
<path d="M0 0 C0.66 0.33 1.32 0.66 2 1 C0.60667426 4.36720387 -0.9789286 5.9859524 -4 8 C-4.66 7.67 -5.32 7.34 -6 7 C-4.02 4.69 -2.04 2.38 0 0 Z " fill="#63A276" transform="translate(588,583)"/>
<path d="M0 0 C0.33 0.99 0.66 1.98 1 3 C-1.475 4.485 -1.475 4.485 -4 6 C-4.99 5.34 -5.98 4.68 -7 4 C-4.69 2.68 -2.38 1.36 0 0 Z " fill="#62A276" transform="translate(635,545)"/>
<path d="M0 0 C0.33 0 0.66 0 1 0 C1.25 3.3125 1.25 3.3125 1 7 C-1 8.9375 -1 8.9375 -3 10 C-2.05066101 6.64566891 -1.10251165 3.30753495 0 0 Z " fill="#E9FCF1" transform="translate(939,771)"/>
<path d="M0 0 C0.99 0.66 1.98 1.32 3 2 C1.37660195 3.70884005 -0.29319053 5.37446717 -2 7 C-2.66 7 -3.32 7 -4 7 C-3.43628586 3.73045798 -2.50037734 2.17424117 0 0 Z " fill="#619F74" transform="translate(803,749)"/>
<path d="M0 0 C0.99 0.33 1.98 0.66 3 1 C0.36 2.98 -2.28 4.96 -5 7 C-4 3 -4 3 -2.125 1.1875 C-1.42375 0.795625 -0.7225 0.40375 0 0 Z " fill="#DCF6E5" transform="translate(610,560)"/>
<path d="M0 0 C1.98 0.66 3.96 1.32 6 2 C6 2.99 6 3.98 6 5 C5.34 4.67 4.68 4.34 4 4 C2.68 4 1.36 4 0 4 C0 2.68 0 1.36 0 0 Z " fill="#53966A" transform="translate(818,532)"/>
<path d="M0 0 C0.66 0.33 1.32 0.66 2 1 C0.37660195 2.70884005 -1.29319053 4.37446717 -3 6 C-3.66 6 -4.32 6 -5 6 C-4.75 4.125 -4.75 4.125 -4 2 C-2.0625 0.6875 -2.0625 0.6875 0 0 Z " fill="#509167" transform="translate(722,983)"/>
<path d="M0 0 C1.32 0 2.64 0 4 0 C4 0.66 4 1.32 4 2 C0.53846154 5 0.53846154 5 -2 5 C-1.125 1.125 -1.125 1.125 0 0 Z " fill="#55966A" transform="translate(737,968)"/>
<path d="M0 0 C0.99 0.33 1.98 0.66 3 1 C1.37660195 2.70884005 -0.29319053 4.37446717 -2 6 C-2.66 6 -3.32 6 -4 6 C-4 5.01 -4 4.02 -4 3 C-2.1875 1.25 -2.1875 1.25 0 0 Z " fill="#639F77" transform="translate(799,915)"/>
<path d="M0 0 C1.65 0 3.3 0 5 0 C5 0.66 5 1.32 5 2 C7.475 2.99 7.475 2.99 10 4 C8 5 8 5 4.875 4.0625 C3.92625 3.711875 2.9775 3.36125 2 3 C2 2.34 2 1.68 2 1 C1.34 0.67 0.68 0.34 0 0 Z " fill="#48935F" transform="translate(705,768)"/>
<path d="M0 0 C0.33 0.66 0.66 1.32 1 2 C0.06421005 4.35981813 -0.93347808 6.69631264 -2 9 C-2.66 9 -3.32 9 -4 9 C-2.94124926 5.59687262 -1.99097846 2.98646769 0 0 Z " fill="#D8F3E2" transform="translate(662,677)"/>
<path d="M0 0 C2.56687367 3.8503105 1.83288724 5.58569763 1 10 C-1.56687367 6.1496895 -0.83288724 4.41430237 0 0 Z " fill="#66A27A" transform="translate(936,663)"/>
<path d="M0 0 C-4.75 4 -4.75 4 -7 4 C-7 3.01 -7 2.02 -7 1 C-3.375 -1.125 -3.375 -1.125 0 0 Z " fill="#579B6D" transform="translate(643,543)"/>
<path d="M0 0 C3.91402949 1.26941497 5.79072873 2.51167694 8 6 C5 6 5 6 3.61328125 4.6875 C2.40885417 3.125 1.20442708 1.5625 0 0 Z " fill="#5A9A6E" transform="translate(601,864)"/>
<path d="M0 0 C2.31 0.66 4.62 1.32 7 2 C6.67 2.66 6.34 3.32 6 4 C4.35 4 2.7 4 1 4 C0.67 2.68 0.34 1.36 0 0 Z " fill="#5C9E70" transform="translate(682,810)"/>
<path d="M0 0 C0.33 0 0.66 0 1 0 C0.67 2.64 0.34 5.28 0 8 C-0.99 8.33 -1.98 8.66 -3 9 C-2.01 6.03 -1.02 3.06 0 0 Z " fill="#DEF5E7" transform="translate(928,799)"/>
<path d="M0 0 C-0.75 1.9375 -0.75 1.9375 -2 4 C-4.125 4.75 -4.125 4.75 -6 5 C-3.74193548 0 -3.74193548 0 0 0 Z " fill="#539565" transform="translate(810,745)"/>
<path d="M0 0 C1 3 1 3 -0.1875 5.625 C-2 8 -2 8 -6 9 C-4.02 6.03 -2.04 3.06 0 0 Z " fill="#669D78" transform="translate(821,704)"/>
<path d="M0 0 C0.99 0.33 1.98 0.66 3 1 C0.36 2.98 -2.28 4.96 -5 7 C-5 6.01 -5 5.02 -5 4 C-2.6875 1.75 -2.6875 1.75 0 0 Z " fill="#539F6D" transform="translate(708,705)"/>
<path d="M0 0 C3.76607955 1.25535985 4.26441793 2.52883585 6 6 C6 6.99 6 7.98 6 9 C4.99406757 7.8803014 3.9954151 6.7540588 3 5.625 C2.443125 4.99851562 1.88625 4.37203125 1.3125 3.7265625 C0 2 0 2 0 0 Z " fill="#DAF8E4" transform="translate(775,704)"/>
<path d="M0 0 C3.3 0.33 6.6 0.66 10 1 C10 1.99 10 2.98 10 4 C6.7 3.01 3.4 2.02 0 1 C0 0.67 0 0.34 0 0 Z " fill="#5D9B73" transform="translate(802,667)"/>
<path d="M0 0 C0.66 0.99 1.32 1.98 2 3 C0.625 5.5 0.625 5.5 -1 8 C-1.66 8 -2.32 8 -3 8 C-1.125 2.25 -1.125 2.25 0 0 Z " fill="#59986C" transform="translate(557,628)"/>
</svg>
